<?xml version="1.0" standalone="no"?>
<!DOCTYPE svg PUBLIC "-//W3C//DTD SVG 20010904//EN"
 "http://www.w3.org/TR/2001/REC-SVG-20010904/DTD/svg10.dtd">
<svg version="1.0" xmlns="http://www.w3.org/2000/svg"
 width="1024.000000pt" height="1024.000000pt" viewBox="0 0 1024.000000 1024.000000"
 preserveAspectRatio="xMidYMid meet">
<metadata>
Created by potrace 1.14, written by Peter Selinger 2001-2017
</metadata>
<g transform="translate(0.000000,1024.000000) scale(0.100000,-0.100000)"
fill="#000000" stroke="none">
<path d="M2326 10231 c-3 -5 1 -11 9 -15 9 -3 15 0 15 9 0 16 -16 20 -24 6z"/>
<path d="M2397 10226 c-10 -8 -15 -20 -11 -30 4 -10 1 -16 -9 -16 -8 0 -17 -6
-20 -12 -3 -10 -9 -10 -26 0 -29 17 -36 15 -16 -4 10 -10 24 -14 40 -10 36 9
75 -3 86 -28 8 -19 9 -18 6 6 -2 15 1 30 7 32 6 3 -1 3 -16 0 -32 -7 -38 9
-10 25 10 7 12 11 4 11 -9 0 -11 7 -7 20 7 23 -2 25 -28 6z"/>
<path d="M2520 10230 c0 -5 5 -10 10 -10 6 0 10 5 10 10 0 6 -4 10 -10 10 -5
0 -10 -4 -10 -10z"/>
<path d="M2568 10232 c18 -6 14 -19 -7 -25 -22 -5 -26 -56 -6 -72 16 -13 28
-75 15 -75 -6 0 -10 5 -10 10 0 6 -6 10 -12 9 -41 -5 -68 2 -69 19 0 13 -2 14
-6 2 -3 -8 -11 -19 -17 -23 -7 -6 -4 -7 7 -3 9 3 17 1 17 -4 0 -6 9 -10 20
-10 21 0 27 -15 10 -25 -6 -4 -18 -1 -26 6 -8 6 -18 9 -21 5 -4 -4 -1 -11 7
-16 13 -8 11 -13 -9 -32 l-24 -23 6 23 c4 15 0 25 -10 29 -10 4 -11 8 -3 13 6
3 8 14 4 23 -3 9 -10 15 -15 12 -4 -3 -6 -12 -2 -20 3 -8 0 -15 -6 -15 -6 0
-11 5 -11 10 0 6 -7 10 -15 10 -8 0 -15 -7 -15 -16 0 -10 6 -14 15 -10 8 3 21
-2 30 -11 14 -14 14 -16 -2 -29 -17 -13 -17 -13 3 -14 11 0 25 -5 32 -12 9 -9
15 -9 24 0 7 7 21 11 33 11 16 -1 17 -2 3 -6 -10 -2 -18 -12 -19 -21 0 -9 -3
-12 -5 -6 -5 11 -55 11 -73 -1 -6 -3 -11 -13 -11 -21 0 -8 -9 -14 -22 -14 -12
0 -19 -3 -15 -6 3 -4 17 -4 31 0 17 4 23 11 20 21 -9 23 14 18 41 -10 30 -29
31 -35 5 -28 -11 3 -31 -2 -45 -11 -29 -19 -91 -21 -99 -3 -3 6 -5 3 -3 -8 1
-12 10 -20 22 -21 53 -2 65 -5 65 -13 0 -5 -22 -14 -50 -21 -53 -13 -61 -30
-10 -22 18 3 30 0 30 -7 0 -7 -11 -11 -26 -9 -31 3 -42 -14 -21 -33 18 -17 9
-59 -15 -68 -17 -6 -17 -8 -4 -26 9 -11 16 -14 16 -7 0 6 7 12 16 12 14 0 14
-3 4 -15 -7 -8 -21 -15 -32 -15 -10 0 -16 -5 -13 -10 3 -6 17 -7 31 -4 15 4
24 2 24 -6 0 -7 -7 -10 -15 -6 -9 3 -15 0 -15 -8 0 -8 6 -14 13 -13 32 1 45
-4 43 -18 -3 -21 -16 -31 -16 -12 0 11 -8 17 -25 17 -14 0 -25 -4 -25 -10 0
-6 6 -9 13 -8 6 2 11 -3 9 -10 -1 -7 4 -15 12 -18 8 -3 12 -11 10 -19 -3 -8 8
-17 28 -25 39 -14 39 -14 -72 -40 -47 -10 -112 -26 -145 -35 -33 -8 -69 -17
-80 -20 -11 -2 -99 -24 -195 -49 -96 -24 -472 -119 -835 -211 -363 -92 -709
-180 -770 -196 -60 -16 -149 -39 -197 -50 l-88 -21 0 -38 0 -38 33 9 c17 5
145 36 282 70 138 33 358 87 490 119 344 84 500 120 522 120 10 0 23 4 29 9 5
5 29 12 54 15 25 3 70 12 100 20 60 17 141 22 105 6 -34 -15 -3 -11 80 11 44
11 145 35 225 54 80 19 258 61 395 95 138 34 315 76 395 95 311 73 2605 637
3215 790 l210 53 -1697 1 c-1332 0 -1698 -2 -1698 -12 0 -8 -3 -9 -8 -1 -4 6
-42 11 -91 10 -47 0 -79 -2 -73 -4z m232 -22 c0 -5 -2 -10 -4 -10 -3 0 -8 5
-11 10 -3 6 -1 10 4 10 6 0 11 -4 11 -10z m-120 -16 c0 -8 -4 -12 -10 -9 -5 3
-10 10 -10 16 0 5 5 9 10 9 6 0 10 -7 10 -16z m42 -6 c-7 -7 -12 -8 -12 -2 0
14 12 26 19 19 2 -3 -1 -11 -7 -17z m183 -9 c11 -17 -1 -21 -15 -4 -8 9 -8 15
-2 15 6 0 14 -5 17 -11z m-300 -19 c-3 -5 -14 -10 -23 -9 -14 0 -13 2 3 9 27
11 27 11 20 0z m115 -30 c0 -5 -4 -10 -10 -10 -5 0 -10 5 -10 10 0 6 5 10 10
10 6 0 10 -4 10 -10z m-77 -71 c-8 -8 -13 -8 -17 0 -4 6 -2 11 4 11 6 0 8 6 4
13 -6 10 -4 10 7 0 9 -10 10 -16 2 -24z m74 19 c37 -14 42 -23 14 -31 -14 -3
-18 -1 -14 9 3 9 -2 14 -13 14 -24 0 -57 20 -35 20 8 0 30 -5 48 -12z m-37
-38 c0 -5 -2 -10 -4 -10 -3 0 -8 5 -11 10 -3 6 -1 10 4 10 6 0 11 -4 11 -10z
m162 -15 c3 -13 1 -22 -3 -19 -9 5 -13 44 -5 44 2 0 6 -11 8 -25z m-242 5 c0
-5 -4 -10 -9 -10 -6 0 -13 5 -16 10 -3 6 1 10 9 10 9 0 16 -4 16 -10z m47 -22
c-3 -7 -5 -2 -5 12 0 14 2 19 5 13 2 -7 2 -19 0 -25z m-102 2 c3 -5 -1 -10
-10 -10 -9 0 -13 5 -10 10 3 6 8 10 10 10 2 0 7 -4 10 -10z m185 0 c0 -5 -8
-10 -17 -10 -15 0 -16 2 -3 10 19 12 20 12 20 0z m-124 -97 c-10 -10 -19 5
-10 18 6 11 8 11 12 0 2 -7 1 -15 -2 -18z m-39 -3 c3 -10 2 -11 -4 -4 -4 7
-17 14 -28 17 -16 5 -15 5 4 4 14 -1 26 -9 28 -17z m143 -30 c0 -5 -4 -10 -10
-10 -5 0 -10 5 -10 10 0 6 5 10 10 10 6 0 10 -4 10 -10z m-20 -24 c0 -11 -19
-15 -25 -6 -3 5 1 10 9 10 9 0 16 -2 16 -4z m-280 -79 c0 -4 -6 -2 -14 5 -8 7
-12 17 -9 22 5 8 23 -12 23 -27z m97 27 c-3 -3 -12 -4 -19 -1 -8 3 -5 6 6 6
11 1 17 -2 13 -5z m53 -29 c0 -13 -4 -14 -22 -4 -34 17 -34 19 -5 19 18 0 27
-5 27 -15z m30 -6 c0 -6 -4 -7 -10 -4 -5 3 -10 11 -10 16 0 6 5 7 10 4 6 -3
10 -11 10 -16z m-193 -15 c-3 -3 -12 -4 -19 -1 -8 3 -5 6 6 6 11 1 17 -2 13
-5z m120 0 c-3 -3 -12 -4 -19 -1 -8 3 -5 6 6 6 11 1 17 -2 13 -5z m353 2 c0
-3 -4 -8 -10 -11 -5 -3 -10 -1 -10 4 0 6 5 11 10 11 6 0 10 -2 10 -4z m-363
-22 c-3 -3 -12 -4 -19 -1 -8 3 -5 6 6 6 11 1 17 -2 13 -5z m-77 -18 c0 -11
-19 -15 -25 -6 -3 5 1 10 9 10 9 0 16 -2 16 -4z m99 -12 c2 -2 -12 -4 -33 -4
-22 0 -35 4 -31 10 5 9 52 4 64 -6z m-154 -14 c-3 -5 -11 -10 -16 -10 -6 0 -7
5 -4 10 3 6 11 10 16 10 6 0 7 -4 4 -10z m69 -22 c-8 -28 -12 -33 -20 -25 -4
4 -2 13 5 21 9 11 9 15 -1 19 -8 3 -6 6 5 6 15 1 17 -4 11 -21z m108 0 c-5
-22 -22 -24 -22 -3 0 18 -17 20 -23 3 -2 -7 -8 -9 -13 -5 -11 11 13 25 41 23
16 -1 21 -6 17 -18z m58 2 c0 -5 -2 -10 -4 -10 -3 0 -8 5 -11 10 -3 6 -1 10 4
10 6 0 11 -4 11 -10z m-133 -32 c-3 -8 -6 -5 -6 6 -1 11 2 17 5 13 3 -3 4 -12
1 -19z m-82 -28 c3 -6 -4 -10 -17 -10 -18 0 -20 2 -8 10 19 12 18 12 25 0z
m93 -30 c-7 -10 -14 -18 -15 -16 -6 6 9 36 18 36 5 0 4 -9 -3 -20z m-61 -26
c-3 -3 -12 -4 -19 -1 -8 3 -5 6 6 6 11 1 17 -2 13 -5z m103 -9 c0 -8 -4 -15
-10 -15 -5 0 -10 7 -10 15 0 8 5 15 10 15 6 0 10 -7 10 -15z m-44 -22 c-10
-10 -19 5 -10 18 6 11 8 11 12 0 2 -7 1 -15 -2 -18z m-74 -21 c-7 -2 -10 -8
-6 -13 6 -10 -9 -13 -19 -3 -9 9 16 33 28 26 5 -3 4 -7 -3 -10z m-727 -342
c-11 -5 -27 -9 -35 -9 -13 -1 -13 0 0 9 8 5 24 9 35 9 l20 0 -20 -9z"/>
<path d="M7804 10209 c3 -17 6 -35 6 -40 0 -5 4 -9 9 -9 6 0 7 15 4 34 -5 30
-2 35 18 39 18 3 16 5 -10 6 -32 1 -33 0 -27 -30z"/>
<path d="M7917 10224 c3 -8 -7 -14 -29 -17 -30 -3 -29 -4 9 -5 34 -2 41 -5 36
-18 -3 -9 -9 -11 -12 -6 -7 11 -81 3 -81 -8 0 -5 15 -6 33 -4 30 5 33 3 51
-41 15 -38 22 -46 38 -42 30 8 48 -3 48 -29 0 -17 -4 -22 -15 -18 -11 5 -13
10 -5 19 8 9 8 15 0 20 -15 10 -30 -4 -23 -22 4 -11 2 -14 -8 -11 -8 3 -14 11
-14 18 0 20 -21 23 -38 5 -19 -19 -34 -19 -53 -1 -10 11 -11 15 -1 19 9 3 9 9
1 23 -13 22 -44 31 -44 14 0 -7 7 -10 15 -6 21 8 20 -28 -1 -49 -9 -9 -13 -19
-9 -23 4 -4 10 -1 12 6 4 10 10 9 30 -3 18 -12 28 -14 36 -6 13 13 40 15 32 2
-3 -5 0 -13 6 -16 5 -4 8 -14 5 -22 -5 -12 -1 -14 16 -10 13 4 29 2 37 -3 12
-7 11 -11 -4 -27 -13 -13 -20 -14 -23 -5 -4 14 -32 16 -32 2 0 -5 6 -10 14
-10 8 0 16 -6 19 -12 3 -10 7 -10 19 -1 12 11 18 10 31 -5 16 -17 16 -19 -5
-18 -16 1 -24 -5 -25 -19 -10 -80 -17 -115 -24 -115 -13 0 -11 74 3 88 9 9 6
12 -16 12 -21 0 -27 4 -22 15 6 17 -9 21 -19 4 -4 -6 2 -17 14 -25 20 -14 20
-17 6 -44 -26 -51 -55 -71 -91 -64 -30 5 -32 4 -27 -16 6 -21 7 -22 19 -6 8
12 14 14 19 6 4 -6 15 -8 26 -5 20 7 27 -9 9 -20 -13 -8 -13 -45 -1 -45 5 0
11 5 13 12 2 6 14 13 27 15 14 2 21 -1 19 -9 -2 -6 -12 -12 -21 -14 -9 -1 -30
-12 -46 -23 -16 -12 -36 -21 -45 -21 -9 0 -16 -8 -16 -20 0 -11 5 -20 10 -20
6 0 10 7 10 15 0 8 6 12 14 9 8 -3 17 -1 21 5 8 14 25 14 25 1 0 -5 -13 -16
-30 -25 -16 -9 -30 -23 -30 -33 0 -10 3 -13 8 -6 9 14 115 27 107 13 -4 -5
-11 -7 -16 -4 -5 4 -9 1 -9 -4 0 -6 8 -11 17 -11 11 0 13 -3 8 -9 -6 -6 -36
-11 -68 -12 -33 -1 -62 -8 -68 -16 -6 -7 -20 -13 -30 -13 -10 0 -21 -4 -24
-10 -4 -6 8 -10 30 -10 22 0 38 6 41 15 11 28 21 15 21 -25 0 -40 -10 -53 -21
-25 -7 20 -76 21 -76 1 0 -9 8 -12 24 -9 16 3 24 0 23 -9 0 -7 3 -28 8 -45 5
-24 13 -33 28 -33 18 0 19 1 5 13 -18 14 -33 67 -19 67 5 0 12 -11 15 -25 4
-14 11 -25 16 -25 14 0 12 18 -2 23 -7 2 -10 7 -6 11 3 4 15 2 27 -6 18 -11
23 -10 38 6 17 18 17 18 -17 13 -19 -3 -30 -4 -24 -1 6 3 9 16 6 29 -2 14 -2
32 2 40 5 13 9 13 26 3 23 -15 27 -30 6 -22 -8 3 -17 0 -21 -6 -4 -7 1 -14 13
-17 40 -10 37 -59 -4 -69 -28 -7 -31 -19 -8 -28 28 -11 37 -7 23 11 -12 14
-12 16 1 11 16 -5 17 -21 4 -52 -5 -14 -4 -17 4 -12 7 4 12 1 12 -9 0 -14 -3
-14 -30 0 -37 19 -47 19 -53 -2 -4 -17 -5 -17 -6 0 -1 17 -26 24 -34 10 -3 -5
-7 -26 -8 -48 -3 -28 0 -39 8 -38 7 2 17 -6 23 -17 8 -16 17 -19 38 -13 25 6
26 5 10 -10 -15 -15 -19 -15 -45 -2 -39 20 -52 19 -46 -5 6 -21 -36 -70 -59
-70 -27 0 7 -15 38 -17 31 -2 34 1 29 18 -4 11 -2 19 4 19 6 0 11 -4 11 -10 0
-19 18 -10 23 12 4 12 9 19 12 16 13 -13 -7 -58 -26 -58 -10 0 -19 -7 -19 -15
0 -20 -16 -19 -24 1 -5 14 -8 14 -21 0 -8 -8 -15 -22 -15 -30 0 -9 -7 -16 -15
-16 -10 0 -15 10 -15 30 0 17 -4 30 -10 30 -5 0 -8 -15 -6 -32 3 -29 7 -33 35
-36 23 -2 31 1 31 13 0 12 6 15 19 10 13 -4 27 1 41 15 23 23 50 22 84 -5 32
-25 10 -29 -23 -4 l-31 22 -18 -21 c-11 -12 -24 -22 -31 -22 -6 0 -11 -12 -11
-26 0 -22 -2 -24 -15 -14 -8 7 -22 9 -31 6 -16 -6 -15 -8 2 -20 10 -8 24 -12
31 -9 7 3 13 0 13 -6 0 -6 -9 -11 -20 -11 -11 0 -20 -7 -20 -15 0 -8 5 -15 11
-15 20 0 5 -45 -16 -47 -16 -1 -16 -1 -2 3 18 6 24 24 7 24 -5 0 -16 12 -23
27 -14 25 -14 22 -11 -46 3 -69 2 -73 -16 -68 -16 4 -20 0 -20 -19 0 -15 -7
-27 -17 -30 -10 -3 -31 -12 -46 -21 -28 -15 -29 -15 -18 5 17 33 12 39 -9 12
-22 -29 -11 -50 27 -50 13 0 34 -7 47 -16 16 -10 50 -16 98 -16 68 -2 70 -3
36 -12 -57 -15 -46 -26 30 -28 l67 -2 -58 -3 c-33 -2 -55 -8 -52 -14 4 -5 -1
-9 -10 -9 -8 0 -18 -7 -21 -15 -4 -8 -12 -15 -20 -15 -8 0 -14 7 -14 15 0 8
-7 15 -15 15 -21 0 -19 -30 3 -46 16 -12 15 -13 -5 -14 -15 0 -23 7 -26 23
l-4 22 -2 -23 c-1 -19 -5 -22 -22 -17 -15 5 -19 4 -14 -5 4 -6 16 -10 26 -7
11 3 19 1 19 -4 0 -5 7 -9 15 -9 8 0 15 -7 15 -15 0 -9 6 -18 13 -21 7 -2 14
-14 14 -26 1 -12 7 -24 12 -28 6 -3 12 -17 13 -30 3 -22 -1 -25 -32 -25 -41 0
-53 -18 -15 -23 31 -4 33 -22 2 -22 -33 0 -39 -10 -22 -36 9 -14 11 -25 5 -29
-15 -10 -30 4 -23 21 8 20 -14 34 -52 33 l-30 -1 28 -11 c15 -6 27 -17 27 -24
0 -19 -27 -16 -39 5 -9 14 -11 12 -17 -15 -5 -24 -12 -33 -26 -33 -15 0 -19 5
-15 18 2 9 6 23 8 31 2 7 -2 16 -10 19 -8 2 -11 0 -7 -6 3 -6 3 -13 -2 -16 -5
-3 -7 -18 -4 -34 4 -28 8 -30 55 -35 60 -5 74 -2 80 21 4 15 5 15 6 0 0 -10
-8 -27 -19 -38 -27 -27 -26 -60 1 -60 17 0 19 3 10 14 -13 16 -1 29 15 18 11
-7 15 -41 5 -40 -3 0 -15 0 -26 -1 l-20 -2 20 -16 c19 -15 18 -15 -20 -10 -22
3 -34 3 -27 0 23 -9 12 -23 -14 -17 -20 5 -25 3 -22 -7 3 -8 16 -13 29 -12
l24 3 -24 -10 c-15 -7 -21 -15 -17 -26 5 -13 1 -15 -21 -9 -36 9 -54 24 -46
39 3 6 3 8 -2 4 -4 -4 -14 -3 -22 3 -10 9 -17 8 -28 -1 -8 -7 -22 -10 -30 -6
-10 3 -15 -1 -15 -12 0 -10 -5 -23 -11 -29 -13 -13 -3 -36 12 -28 5 4 9 15 9
25 0 13 5 17 15 14 9 -4 15 0 15 10 0 9 5 16 10 16 6 0 10 -7 10 -15 0 -8 -4
-15 -10 -15 -15 0 -12 -47 3 -53 6 -3 -5 -3 -26 -1 -28 3 -38 1 -35 -8 6 -17
93 -18 93 -1 0 6 3 15 8 19 13 13 8 26 -8 20 -17 -6 -21 19 -5 29 6 3 10 1 10
-5 0 -6 3 -9 8 -7 4 3 13 -1 19 -9 10 -10 9 -16 -9 -28 -24 -17 -18 -20 19
-10 14 4 20 11 16 21 -5 12 -1 11 15 -3 23 -19 21 -37 -3 -27 -8 3 -15 0 -15
-6 0 -6 7 -11 15 -11 17 0 20 -16 5 -25 -6 -3 -18 1 -27 10 -9 9 -25 14 -37
11 -12 -2 -52 -8 -89 -11 -49 -5 -65 -11 -58 -18 16 -16 14 -24 -7 -29 -22 -6
-23 -49 -1 -56 8 -3 17 -9 20 -14 9 -14 38 2 32 18 -3 8 -1 14 5 14 6 0 13 -6
15 -12 3 -8 6 -6 6 5 1 10 -6 20 -15 24 -8 3 -13 12 -10 19 3 8 0 14 -7 15 -7
0 -3 4 8 9 25 11 95 13 95 3 0 -16 -19 -37 -27 -30 -4 5 -1 12 6 16 9 6 2 8
-19 7 -19 -1 -35 -7 -36 -14 -1 -7 0 -8 3 -2 11 23 23 8 23 -30 0 -33 3 -40
20 -40 11 0 20 -7 20 -15 0 -8 -7 -15 -15 -15 -9 0 -18 7 -21 15 -8 20 -34 19
-34 -1 0 -11 -6 -14 -20 -9 -23 7 -24 6 -10 -29 7 -21 6 -26 -5 -26 -8 0 -15
7 -15 15 0 8 -4 15 -10 15 -14 0 -12 -13 4 -35 12 -17 16 -18 32 -5 13 12 18
12 21 3 3 -7 13 -13 24 -13 13 0 19 -7 19 -23 0 -31 9 -39 26 -22 18 18 18 35
-1 35 -8 0 -15 7 -15 15 0 8 5 15 10 15 6 0 10 7 10 15 0 17 16 20 25 5 3 -5
1 -10 -6 -10 -7 0 -5 -6 6 -13 13 -10 15 -16 6 -21 -6 -4 -9 -16 -6 -27 4 -11
2 -19 -5 -19 -7 0 -2 -9 11 -20 13 -10 20 -19 16 -20 -5 0 -15 7 -23 15 -10 9
-24 13 -40 9 -19 -5 -26 -1 -33 19 -5 14 -14 28 -20 31 -14 9 -61 -15 -61 -31
0 -7 -4 -13 -10 -13 -5 0 -10 5 -10 11 0 5 -5 7 -10 4 -13 -8 -50 4 -50 16 0
6 10 8 23 4 17 -5 19 -4 7 4 -8 6 -27 8 -42 5 -34 -7 -37 11 -4 20 27 7 57 -2
68 -18 4 -6 6 -2 6 10 -2 17 -8 20 -45 18 -50 -1 -59 7 -41 35 11 18 10 23 -7
36 -20 16 -20 16 1 12 24 -5 27 19 4 33 -7 4 -10 15 -7 25 4 9 12 13 18 10 6
-4 3 7 -6 25 -12 24 -14 35 -5 45 9 11 8 17 -2 28 -11 12 -15 12 -30 -5 -9
-10 -19 -15 -22 -10 -3 6 1 15 10 22 10 9 13 22 9 42 -4 16 -2 28 4 28 5 0 11
-10 13 -22 4 -25 28 -37 28 -14 0 9 -4 16 -10 16 -5 0 -10 10 -10 21 0 16 -5
20 -20 16 -13 -3 -20 0 -20 10 0 8 9 17 19 20 28 7 14 33 -18 34 -17 1 -20 3
-8 6 13 3 16 10 11 26 -9 29 -16 35 -21 20 -3 -7 -12 -13 -21 -13 -13 0 -12 3
4 18 11 11 26 22 34 25 11 4 9 6 -5 7 -11 1 -24 2 -29 1 -5 -1 -20 8 -34 21
-17 16 -26 19 -29 11 -3 -7 -9 -13 -15 -13 -6 0 -8 6 -5 14 9 22 -18 39 -45
30 -13 -4 -27 -7 -32 -6 -4 2 -14 -2 -20 -8 -10 -7 -16 -3 -25 16 -11 24 -39
29 -33 5 1 -6 -8 -11 -19 -11 -20 0 -21 1 -5 25 16 24 16 25 -8 25 -13 0 -27
6 -29 13 -3 7 -6 6 -6 -5 -1 -9 4 -20 10 -24 8 -4 7 -9 -2 -15 -21 -13 -29
-11 -29 7 0 9 -6 14 -12 11 -8 -2 -12 -17 -10 -35 2 -18 -1 -32 -7 -32 -6 0
-8 -7 -5 -15 4 -9 11 -15 18 -14 26 3 47 -2 42 -10 -3 -5 -14 -7 -24 -4 -10 2
-24 -3 -31 -11 -9 -11 -10 -16 -2 -16 6 0 11 5 11 10 0 6 7 10 15 10 17 0 20
-16 5 -25 -16 -10 -12 -28 5 -21 24 9 17 -10 -7 -22 -19 -9 -20 -11 -5 -11 10
-1 26 -8 35 -17 15 -15 14 -16 -5 -10 -12 4 -24 2 -28 -4 -3 -5 1 -12 9 -15
53 -17 51 -15 36 -26 -12 -9 -10 -10 7 -6 19 4 20 2 10 -14 -6 -10 -8 -22 -4
-26 5 -4 12 -1 16 6 5 8 14 10 21 6 9 -5 10 -1 5 16 -7 22 -7 22 9 6 12 -11
26 -15 42 -11 20 5 24 3 24 -17 0 -18 3 -20 9 -10 12 19 81 24 81 5 0 -8 7
-14 15 -14 8 0 15 -5 15 -11 0 -7 10 -9 28 -5 20 5 23 4 12 -4 -22 -14 -46
-12 -60 5 -7 8 -24 14 -39 14 -14 -1 -19 -3 -10 -6 14 -3 17 -33 10 -82 -1 -2
-8 2 -16 9 -12 10 -15 10 -15 -4 0 -9 -6 -16 -12 -16 -10 0 -10 -2 0 -8 18
-12 12 -120 -8 -128 -12 -5 -10 -8 7 -13 21 -6 21 -8 8 -31 -18 -32 -31 -60
-39 -87 -6 -17 -3 -23 8 -23 9 0 16 -4 16 -9 0 -5 -14 -8 -31 -7 -16 1 -32 -1
-35 -6 -3 -4 4 -8 16 -8 27 0 45 -18 54 -53 5 -22 4 -27 -6 -21 -7 4 -10 3 -5
-1 4 -5 0 -20 -9 -34 l-15 -26 19 22 c19 22 40 21 23 -1 -12 -17 -21 -46 -13
-45 20 3 24 -2 9 -13 -24 -19 -34 -68 -13 -68 9 0 16 -8 16 -17 0 -13 -2 -15
-8 -5 -6 9 -12 6 -20 -13 -12 -26 -6 -81 11 -102 12 -16 2 -17 -24 -3 -11 6
-19 7 -19 1 0 -5 11 -12 25 -15 31 -8 32 -20 3 -40 -18 -13 -20 -18 -10 -28
10 -10 15 -10 22 2 5 8 10 11 10 5 0 -18 -15 -34 -30 -32 -8 1 -16 -2 -17 -8
-1 -5 7 -9 19 -7 16 2 19 -2 13 -15 -4 -10 -9 -42 -12 -70 -6 -51 -7 -52 -32
-46 -23 6 -24 4 -13 -10 8 -9 19 -14 27 -11 7 3 16 1 20 -5 4 -7 -5 -11 -24
-11 -29 0 -30 -2 -19 -20 7 -11 19 -21 28 -24 12 -3 12 -4 -2 -5 -9 0 -24 7
-34 16 -17 17 -17 16 -11 -9 5 -20 3 -28 -10 -31 -17 -4 -17 -5 0 -6 27 -2 20
-21 -7 -21 -14 0 -28 -4 -31 -10 -4 -6 6 -10 23 -10 35 0 57 21 41 37 -13 13
5 28 21 18 16 -10 11 -28 -15 -58 -20 -22 -28 -26 -44 -18 -23 13 -35 3 -20
-16 17 -20 50 -16 56 7 6 23 23 27 23 5 0 -7 -7 -18 -16 -23 -13 -7 -14 -14
-6 -27 10 -19 -5 -45 -27 -45 -6 0 -11 -9 -11 -20 0 -14 -6 -20 -17 -18 -15 2
-19 -6 -21 -49 -2 -32 1 -53 7 -53 6 0 11 15 11 34 0 19 5 38 10 41 6 4 10 -8
10 -29 0 -24 5 -36 18 -39 13 -4 12 -5 -4 -6 -22 -1 -34 -19 -34 -51 0 -10 -6
-20 -14 -23 -10 -4 -12 3 -10 24 2 18 0 28 -6 24 -6 -3 -10 -1 -10 4 0 6 -4
11 -10 11 -15 0 -12 -16 5 -34 22 -22 0 -58 -31 -50 -19 5 -23 1 -27 -23 l-4
-28 -2 27 c-1 20 -5 26 -16 22 -9 -4 -15 0 -15 10 0 9 -4 16 -10 16 -5 0 -7
-7 -4 -15 9 -23 -21 -29 -56 -11 -17 8 -44 14 -58 12 -15 -2 -21 -1 -14 1 25
9 11 22 -19 16 -21 -4 -34 -1 -40 8 -14 22 -11 39 7 39 8 0 12 5 9 10 -5 8
-11 7 -21 -1 -11 -9 -18 -9 -26 -1 -9 9 -8 12 5 12 10 0 17 8 17 20 0 11 -5
20 -10 20 -6 0 -4 13 5 31 16 30 16 30 -5 19 -12 -6 -24 -9 -28 -6 -3 3 0 6 7
6 16 0 4 41 -17 56 -8 6 -12 16 -8 22 4 8 0 12 -11 12 -15 0 -16 2 -3 10 13 9
13 12 -2 21 -10 5 -18 19 -18 29 0 11 -4 20 -10 20 -5 0 -10 9 -10 20 0 10
-15 34 -34 52 -18 18 -36 40 -39 48 -4 12 -6 11 -6 -3 -1 -10 -6 -15 -12 -12
-6 4 -8 13 -5 21 3 8 1 14 -5 14 -6 0 -8 4 -4 9 3 5 -9 21 -27 35 -20 16 -35
21 -39 14 -4 -7 -13 -6 -29 2 -12 6 -28 9 -35 6 -8 -3 -17 -1 -20 5 -4 5 -12
9 -18 8 -7 -1 -19 1 -27 4 -8 4 -26 8 -40 10 -33 5 -61 17 -82 34 -15 13 -17
10 -24 -34 -4 -26 -8 -62 -8 -80 -1 -17 -4 -29 -8 -26 -5 2 -8 -1 -8 -6 0 -7
24 -11 59 -11 l59 0 26 -63 c21 -49 25 -68 17 -87 -7 -18 -10 -20 -10 -7 -1 9
-5 17 -10 17 -19 0 -22 -115 -19 -609 2 -378 6 -505 15 -508 8 -3 13 11 16 39
l4 43 1 -45 c1 -31 -14 -92 -51 -200 -48 -144 -54 -155 -78 -158 -25 -3 -27 0
-37 55 -6 32 -18 91 -27 132 -13 61 -16 168 -18 653 -2 452 -5 580 -15 586 -9
6 -4 36 23 127 40 137 42 159 16 177 -23 16 -17 77 8 85 46 15 71 29 71 39 0
7 12 19 26 29 18 11 23 20 16 27 -6 6 -8 17 -5 25 5 12 7 12 14 2 4 -8 10 -11
13 -8 3 3 -11 22 -30 42 -30 30 -33 37 -18 38 13 0 8 5 -13 15 -18 8 -33 20
-33 27 0 7 -35 25 -77 41 -43 16 -89 33 -103 39 -35 14 -52 18 -73 18 -9 0
-15 4 -13 8 3 4 -34 20 -82 36 -48 16 -96 33 -107 39 -11 5 -29 11 -40 13 -11
2 -51 14 -90 27 -38 14 -89 29 -112 36 -24 6 -43 15 -43 21 0 6 -4 8 -9 5 -5
-3 -25 1 -44 9 -50 21 -189 57 -195 50 -3 -3 -3 -5 0 -5 3 0 117 -39 254 -86
137 -48 292 -101 345 -119 134 -46 159 -60 159 -90 0 -15 -6 -25 -14 -25 -7 0
-43 -15 -79 -33 -61 -30 -68 -32 -83 -18 -15 15 -16 12 -10 -34 9 -72 11 -79
19 -92 5 -8 3 -13 -3 -13 -6 0 -8 -5 -5 -10 4 -6 12 -7 18 -4 8 5 8 3 0 -7 -7
-7 -13 -20 -12 -28 0 -11 3 -10 9 4 7 16 9 17 9 3 1 -9 -3 -19 -8 -22 -5 -3
-8 -47 -8 -98 0 -89 0 -90 6 -28 l7 65 5 -65 c4 -46 1 -68 -8 -76 -7 -6 -13
-15 -13 -19 0 -4 7 -2 15 5 8 7 15 9 15 4 0 -14 -16 -36 -26 -35 -5 1 -9 -5
-9 -11 0 -7 10 -12 23 -12 l22 1 0 -329 c0 -308 -1 -329 -17 -326 -10 1 -23
-1 -30 -5 -7 -4 -26 -1 -43 8 l-30 16 -1 257 c-1 276 -9 397 -22 350 -6 -24
-10 -26 -38 -18 -18 5 -40 5 -55 0 -22 -9 -24 -7 -24 20 0 17 -4 30 -10 30 -6
0 -10 -127 -10 -360 l0 -360 -22 -4 c-53 -11 -270 -28 -292 -22 l-23 6 -10
327 -10 328 1 -338 1 -338 -40 3 -40 3 -5 355 c-3 195 -4 357 -2 360 2 2 23
-3 48 -12 l44 -16 0 29 c0 18 6 29 18 33 15 4 193 30 281 40 18 2 36 8 40 13
9 13 74 42 109 49 29 6 29 8 35 79 3 41 14 94 26 120 11 25 23 79 27 119 6 65
5 74 -12 80 -32 13 -645 227 -708 247 -52 17 -60 17 -70 4 -11 -15 -40 -31
-456 -252 -129 -69 -253 -139 -274 -156 -22 -17 -37 -27 -34 -21 3 5 2 18 -3
29 -5 14 -8 2 -7 -35 0 -38 2 -47 7 -30 6 22 8 23 14 7 4 -10 7 -32 7 -48 0
-16 9 -38 20 -49 18 -18 20 -33 20 -198 0 -137 -3 -182 -14 -198 -10 -13 -11
-25 -5 -35 5 -8 9 -10 9 -4 0 5 7 0 15 -11 27 -39 121 -73 137 -49 4 5 8 54 8
107 l0 97 35 6 c19 3 52 8 72 11 20 3 32 9 26 12 -5 4 -9 19 -9 33 1 15 -3 25
-9 23 -7 -3 -11 14 -12 43 -1 26 -4 64 -6 83 -7 49 13 70 61 63 21 -3 87 -25
148 -48 60 -24 121 -46 135 -48 13 -2 37 -9 52 -15 16 -7 34 -12 42 -12 8 0
16 -4 20 -9 3 -5 18 -12 33 -16 15 -3 40 -16 54 -28 l27 -23 3 -370 3 -369
-55 -7 c-30 -4 -110 -10 -177 -13 -114 -5 -123 -4 -133 14 -6 13 -10 139 -10
350 0 205 -4 331 -10 331 -27 0 -32 -80 -24 -392 l9 -316 -79 -7 c-43 -4 -88
-10 -99 -14 -19 -7 -18 -9 8 -29 15 -12 31 -22 36 -22 9 0 41 -61 35 -67 -2
-3 -25 -5 -49 -5 -32 0 -47 -4 -51 -15 -4 -9 -5 -17 -3 -19 1 -2 106 6 232 16
127 10 298 24 380 30 83 5 231 17 330 25 99 9 227 16 285 18 95 2 105 0 102
-15 -2 -10 2 -18 8 -18 5 0 10 6 10 13 0 7 9 18 20 25 12 7 18 17 15 22 -3 6
1 20 9 32 16 22 16 22 16 -9 0 -18 5 -35 10 -38 6 -3 10 -13 10 -21 0 -12 -8
-13 -35 -8 l-35 6 0 -51 c0 -46 -2 -51 -22 -52 -13 0 -32 -3 -43 -5 -11 -3
-193 -18 -405 -34 -943 -73 -1000 -78 -1024 -94 -37 -24 -60 -94 -47 -143 6
-23 17 -45 24 -50 18 -15 95 -25 102 -13 3 5 1 10 -5 10 -6 0 -15 11 -22 25
-9 19 -8 29 5 49 20 29 -27 24 632 71 270 19 554 40 633 46 79 6 145 9 148 7
2 -3 -10 -35 -28 -71 -29 -61 -35 -67 -63 -67 -16 0 -203 -11 -415 -25 -212
-13 -459 -27 -550 -31 -102 -4 -168 -11 -172 -18 -4 -6 -8 -66 -8 -133 0 -91
-3 -123 -12 -124 -7 0 -71 -6 -143 -12 l-129 -12 64 -33 c36 -19 72 -37 80
-42 58 -31 153 -49 248 -47 34 1 62 -1 62 -6 0 -10 212 0 219 11 8 12 41 11
41 -1 0 -6 5 -6 13 0 6 5 42 9 80 8 37 0 67 2 67 5 0 3 17 5 37 4 21 -1 46 2
56 8 15 8 20 5 24 -11 3 -12 10 -21 15 -21 5 0 7 4 3 9 -7 13 15 26 24 14 3
-5 26 -10 51 -11 25 -1 52 -3 60 -4 38 -3 70 3 70 15 0 8 19 12 60 12 39 0 60
-4 60 -12 0 -8 29 -10 102 -8 81 2 104 6 114 19 8 12 14 14 19 6 4 -7 18 -9
30 -6 18 5 25 1 30 -13 4 -13 12 -17 25 -14 16 4 19 2 14 -11 -6 -16 11 -23
20 -8 3 5 18 7 34 4 37 -5 102 35 102 63 0 15 2 17 9 6 6 -9 11 -10 15 -2 4 6
11 9 16 6 23 -14 59 8 75 47 21 53 30 43 11 -12 -8 -25 -11 -51 -7 -63 7 -18
8 -19 14 -3 4 10 5 22 1 27 -7 12 -2 11 38 -5 19 -8 40 -22 48 -30 7 -9 18
-16 25 -16 8 0 15 -5 17 -11 5 -16 36 0 44 23 3 12 9 16 13 10 3 -6 18 -13 33
-17 20 -5 27 -3 31 12 3 10 5 -22 6 -70 1 -56 5 -86 11 -82 6 3 10 1 10 -4 0
-6 -5 -11 -11 -11 -5 0 -9 -8 -8 -18 3 -33 -4 -98 -8 -74 -2 12 -9 22 -14 22
-5 0 -9 5 -9 11 0 16 -31 38 -52 39 -10 0 -18 -5 -18 -11 0 -6 -8 -9 -17 -7
-10 2 -24 -3 -30 -12 -9 -11 -9 -2 1 33 13 45 12 51 -8 48 -5 -1 -16 5 -26 14
-12 11 -20 13 -25 6 -3 -6 -1 -11 4 -11 6 0 11 -7 11 -15 0 -19 -9 -19 -32 2
-11 9 -18 11 -18 5 0 -7 5 -12 10 -12 6 0 10 -4 10 -10 0 -16 -40 -12 -46 5
-10 25 -27 17 -22 -10 3 -14 1 -25 -3 -25 -5 0 -9 6 -9 13 0 8 -3 8 -9 -2 -5
-8 -16 -11 -25 -8 -35 14 -31 -7 30 -141 26 -56 29 -72 15 -72 -4 0 -13 15
-19 33 -7 17 -10 22 -8 11 2 -12 0 -27 -4 -33 -3 -7 -7 7 -8 30 -1 24 -9 53
-17 65 -8 13 -17 42 -20 65 -5 41 -26 70 -33 48 -3 -6 -9 -6 -18 2 -17 14 -5
-21 48 -146 33 -76 37 -80 67 -80 31 0 32 -2 87 -135 129 -315 364 -903 362
-905 -2 -2 -79 -4 -173 -6 l-169 -4 -50 132 -49 133 -201 0 c-111 0 -224 -3
-252 -6 l-52 -7 -45 -121 -45 -121 -126 -3 c-69 -1 -126 0 -126 3 0 3 32 88
71 188 170 436 266 706 246 689 -10 -8 -12 -5 -12 14 1 13 5 27 8 31 4 3 7 13
6 22 0 12 -3 11 -9 -4 -8 -19 -9 -19 -9 2 -1 12 -4 30 -7 40 -5 15 -4 15 5 3
7 -10 11 -11 11 -3 0 7 -10 21 -22 33 -21 19 -21 20 -2 20 25 0 29 37 7 62
-21 24 -29 23 -38 -4 l-8 -23 -4 23 c-3 13 -11 26 -19 29 -8 3 -14 10 -14 17
0 6 -10 13 -22 13 -13 1 -33 8 -45 14 -18 10 -29 10 -50 0 -23 -10 -26 -10
-15 0 20 22 14 29 -26 29 -21 0 -62 7 -91 16 -56 16 -77 13 -42 -6 21 -11 21
-13 21 -604 l0 -593 -46 -7 c-26 -3 -93 -6 -150 -6 l-104 0 0 328 c0 301 -6
383 -23 337 -4 -9 -3 -13 3 -10 34 21 -51 -187 -225 -548 l-47 -98 -42 6 c-22
4 -44 10 -48 13 -3 4 -59 121 -123 261 -150 327 -173 374 -172 339 1 -14 5
-24 8 -22 15 9 19 -55 19 -317 0 -265 -1 -277 -19 -282 -11 -2 -76 -5 -145 -6
l-126 -2 -1 63 c0 35 0 135 1 223 2 246 -12 722 -21 700 -4 -11 -8 -15 -8 -8
-1 16 -56 46 -188 101 -40 17 -73 28 -73 25 0 -3 16 -24 36 -46 84 -92 127
-234 127 -422 2 -265 -76 -447 -232 -546 -32 -21 -48 -26 -57 -18 -8 7 -14 6
-20 -2 -5 -8 -3 -9 6 -4 8 5 11 4 6 -3 -3 -6 -14 -11 -24 -11 -9 0 -44 -10
-77 -22 -56 -22 -78 -23 -342 -27 l-283 -4 0 260 c0 143 -3 272 -6 288 -9 45
-133 128 -219 148 -30 7 -29 7 17 -41 80 -82 109 -188 89 -323 -26 -180 -111
-285 -266 -327 -104 -28 -316 -26 -413 3 -10 3 19 -13 63 -36 91 -48 214 -93
295 -109 65 -12 294 -18 330 -8 62 17 142 52 193 84 48 30 84 24 133 -22 41
-39 57 -47 104 -51 61 -5 85 -9 95 -15 6 -4 30 -5 55 -4 68 3 170 -23 170 -43
1 -15 2 -15 14 1 12 16 15 15 30 -15 15 -31 16 -32 22 -11 6 22 40 41 51 29 4
-3 -1 -6 -10 -6 -10 0 -17 -4 -17 -10 0 -14 16 -12 51 5 29 15 132 18 123 3
-3 -4 13 -6 35 -5 23 2 39 -2 38 -8 -1 -5 15 -9 36 -9 27 1 37 -3 37 -14 0
-11 -7 -13 -30 -9 -16 4 -32 2 -35 -3 -3 -6 5 -10 19 -10 14 0 28 -4 31 -10 9
-15 25 -12 19 4 -3 8 -1 17 5 21 6 3 11 15 11 26 0 15 5 19 18 15 9 -3 24 -1
32 4 13 8 13 13 2 31 -13 20 -12 21 17 14 25 -5 30 -4 25 8 -3 8 6 21 21 31
20 13 24 20 15 31 -8 9 -6 14 6 19 9 3 14 13 11 20 -5 13 12 26 32 26 5 0 24
-13 42 -30 19 -16 44 -30 57 -30 12 0 22 -4 22 -10 0 -5 6 -7 13 -5 6 3 29
-10 49 -28 l38 -33 -20 -39 c-21 -42 -21 -60 0 -60 7 0 14 -8 16 -18 1 -9 -2
-17 -7 -17 -14 0 -10 -27 5 -33 18 -7 26 1 26 25 0 18 1 18 27 1 26 -17 26
-17 21 3 -3 14 0 20 12 20 12 0 16 -7 14 -23 -1 -13 2 -25 7 -29 5 -3 9 4 9
15 0 20 27 42 52 40 7 0 3 -4 -9 -9 -13 -5 -23 -15 -22 -22 0 -11 2 -10 6 0 4
10 8 10 19 1 11 -9 17 -9 28 0 23 19 47 -13 44 -60 -3 -43 -28 -54 -44 -19 -7
14 -13 17 -24 10 -13 -8 -12 -10 3 -10 9 0 17 -6 17 -13 0 -8 -14 -12 -42 -11
-24 1 -31 0 -15 -3 22 -4 27 -9 27 -34 0 -27 -3 -30 -27 -29 -16 1 -52 2 -80
1 l-53 -1 2 -62 c1 -62 1 -63 8 -18 l7 45 2 -40 c3 -36 4 -37 11 -15 5 15 8
-26 9 -108 l1 -133 -52 3 -53 3 -3 163 -2 162 -75 0 -75 0 0 43 c0 46 -13 77
-24 58 -4 -6 -1 -11 6 -11 10 0 10 -2 0 -9 -8 -4 -13 -11 -13 -15 1 -3 1 -10
1 -14 0 -11 -72 -2 -87 10 -20 16 -35 -1 -28 -34 5 -21 4 -28 -4 -24 -6 4 -9
11 -6 16 3 5 0 12 -6 15 -5 4 -8 13 -5 21 3 8 -1 14 -8 14 -11 0 -15 -31 -19
-148 -6 -181 -6 -181 -40 -210 -37 -32 -92 -44 -139 -30 -78 23 -98 73 -99
247 -1 69 -3 118 -6 109 -2 -10 -10 -15 -19 -11 -7 3 -11 9 -8 14 3 5 -20 8
-50 6 -45 -2 -56 1 -60 15 -7 27 -24 21 -28 -9 -3 -26 -7 -29 -73 -38 l-70
-10 5 -120 c7 -167 4 -193 -23 -198 -15 -3 -11 -5 11 -6 19 0 31 -5 27 -11 -3
-5 -1 -10 5 -10 6 0 8 -4 5 -10 -3 -6 1 -7 9 -4 9 3 16 1 16 -5 0 -6 9 -11 19
-11 10 0 21 -7 25 -15 3 -8 17 -20 32 -25 15 -6 24 -13 20 -17 -3 -3 -1 -12 5
-19 6 -7 8 -18 4 -24 -8 -13 -45 -13 -45 1 0 5 -5 7 -10 4 -6 -4 -8 -11 -5
-16 4 -5 3 -19 0 -30 -6 -17 -13 -20 -41 -17 -28 3 -34 1 -34 -14 0 -14 -6
-18 -27 -16 -22 2 -28 -1 -28 -17 0 -11 -4 -19 -10 -18 -75 12 -88 13 -69 4
17 -8 21 -17 19 -55 0 -25 3 -46 7 -46 5 0 20 -11 34 -25 21 -21 24 -31 18
-58 -6 -28 -5 -30 9 -19 11 10 17 10 22 1 10 -16 -15 -30 -42 -24 -57 13 -74
25 -68 45 4 11 2 20 -4 20 -6 0 -11 8 -11 17 0 14 -2 15 -12 4 -10 -11 -10
-14 0 -18 14 -6 16 -43 2 -43 -5 0 -10 -6 -10 -14 0 -18 54 -40 80 -33 11 3
20 1 20 -4 0 -9 -28 -14 -68 -10 -13 1 -30 -3 -37 -9 -9 -8 -15 -8 -20 0 -10
16 -38 12 -32 -4 4 -10 1 -13 -8 -10 -20 8 2 42 29 46 18 3 18 5 -8 21 -27 18
-28 18 -22 -1 4 -11 0 -24 -9 -32 -16 -14 -20 -9 -28 41 -2 18 2 30 15 38 10
6 16 16 13 21 -10 15 -25 12 -25 -6 0 -9 -6 -14 -12 -11 -7 2 -13 13 -13 24 0
35 -14 38 -21 4 -5 -25 -10 -30 -25 -26 -26 9 -24 -7 3 -24 16 -10 23 -10 26
-2 2 6 8 11 14 11 6 0 6 -6 -2 -15 -7 -8 -21 -15 -31 -15 -10 0 -21 -9 -24
-20 -3 -11 -13 -20 -21 -20 -22 0 -17 -17 9 -25 12 -4 24 -9 27 -10 3 -1 15
-6 28 -10 12 -4 22 -12 22 -17 0 -6 13 -7 31 -3 21 5 29 4 25 -3 -3 -6 -2 -13
4 -17 5 -3 10 1 10 9 0 9 5 16 10 16 6 0 10 -4 10 -10 0 -5 11 -9 25 -8 27 2
33 13 13 21 -7 2 -10 8 -6 12 10 10 38 -13 38 -31 0 -26 18 -14 25 16 4 16 11
30 17 30 6 0 8 -6 5 -14 -7 -17 18 -41 32 -32 5 4 12 2 15 -3 4 -5 -4 -12 -16
-14 -18 -3 -17 -5 7 -6 24 -1 27 -3 15 -11 -13 -9 -13 -12 3 -21 9 -6 15 -14
12 -20 -4 -5 -1 -9 4 -9 18 0 12 -28 -6 -33 -17 -4 -17 -5 0 -6 9 0 17 -5 17
-11 0 -5 -8 -10 -17 -11 -15 0 -15 -2 2 -9 15 -6 16 -9 4 -9 -12 -1 -16 -10
-13 -39 1 -20 5 -45 9 -54 7 -17 -4 -18 -141 -18 -82 0 -173 3 -202 6 -44 6
-50 9 -40 21 8 10 9 16 1 21 -6 4 -14 25 -18 46 -12 61 -34 76 -113 76 -40 0
-62 4 -54 9 8 5 -26 7 -80 5 -99 -4 -123 -6 -196 -23 -77 -17 -121 -21 -126
-12 -3 5 -31 12 -61 16 -36 4 -53 10 -49 17 5 7 0 9 -14 6 -12 -4 -24 -2 -28
3 -3 5 -16 2 -30 -7 -18 -13 -23 -13 -19 -3 4 10 -3 14 -23 14 -37 0 -60 -19
-65 -53 -4 -26 -4 -26 -12 -4 -4 13 -16 22 -27 22 -16 0 -19 -5 -16 -25 3 -14
1 -28 -4 -31 -15 -10 3 -25 23 -19 10 4 19 2 19 -4 0 -5 -8 -12 -18 -14 -9 -3
1 -5 22 -6 22 0 37 -3 34 -6 -5 -5 -465 7 -893 24 -137 6 -401 15 -585 21
-184 6 -363 13 -397 16 l-63 6 0 -86 c0 -47 1 -86 3 -86 1 -1 36 -3 77 -6 41
-2 145 -9 230 -15 85 -6 198 -12 250 -14 52 -2 129 -7 170 -10 145 -10 216
-14 350 -20 74 -3 185 -10 245 -15 61 -5 230 -15 377 -21 148 -7 268 -16 268
-21 0 -4 -12 -6 -27 -3 -16 2 -100 6 -188 9 -88 3 -252 10 -365 16 -113 5
-284 12 -380 15 -96 3 -184 8 -195 11 -19 5 -19 4 -2 -10 11 -8 14 -17 8 -20
-5 -4 -12 -2 -16 4 -3 5 -14 10 -23 9 -14 0 -14 -2 -2 -6 19 -8 44 -33 33 -34
-4 -1 -16 -1 -26 0 -9 1 -17 -3 -17 -9 0 -7 6 -10 14 -7 8 3 20 -1 26 -9 10
-11 10 -14 0 -14 -9 0 -8 -6 4 -19 14 -16 15 -19 2 -24 -8 -3 -17 -1 -19 6 -3
9 -9 8 -21 -4 -14 -13 -15 -22 -5 -67 7 -29 17 -52 23 -52 6 -1 -1 -8 -16 -16
-34 -18 -37 -54 -8 -91 11 -14 20 -32 20 -39 0 -8 3 -13 8 -12 15 4 98 -15
123 -28 18 -9 36 -11 57 -5 19 6 34 5 41 -2 13 -13 110 -26 117 -15 6 10 126
-1 138 -13 6 -5 30 -9 55 -9 26 0 41 -4 34 -8 -6 -4 46 -7 117 -7 70 0 126 3
123 7 -2 5 6 4 19 0 32 -11 84 -8 113 8 19 10 31 11 48 3 13 -6 30 -8 37 -3
15 9 50 1 50 -11 0 -5 10 -9 23 -9 18 0 19 2 7 10 -13 8 -13 10 2 10 9 0 18
-8 20 -17 2 -13 13 -18 38 -18 19 0 38 4 42 10 4 5 14 2 26 -8 10 -9 26 -17
34 -17 9 0 19 -6 21 -12 4 -10 6 -10 6 0 1 18 26 14 46 -8 20 -22 14 -26 -15
-10 -13 7 -21 7 -25 0 -3 -5 1 -10 9 -10 21 0 21 -16 0 -24 -22 -8 -22 -8 -27
11 -2 10 -3 3 -1 -15 3 -30 -8 -43 -20 -23 -7 10 -46 22 -44 12 3 -27 -3 -32
-22 -18 -19 13 -24 11 -56 -21 -24 -24 -32 -38 -25 -45 8 -8 11 -7 11 2 0 7 5
9 13 4 6 -4 144 -8 306 -8 233 -1 296 -4 299 -14 2 -7 -2 -18 -9 -23 -10 -6
-7 -7 9 -3 21 6 23 4 17 -14 -7 -22 13 -35 66 -43 13 -1 33 -11 44 -21 19 -18
40 -18 78 -2 13 5 16 3 11 -8 -9 -23 14 -30 27 -8 9 13 17 16 28 11 9 -5 28
-11 43 -14 26 -6 26 -7 12 -34 -12 -24 -12 -28 3 -40 9 -6 11 -12 5 -12 -7 0
-12 -8 -12 -19 0 -23 -28 -28 -127 -26 -40 1 -70 -1 -68 -5 3 -5 -13 -6 -35
-4 -22 2 -40 -1 -40 -6 0 -6 -13 -8 -30 -5 -25 4 -30 2 -30 -14 0 -11 4 -23
10 -26 6 -3 10 -2 10 4 0 13 55 -6 71 -25 6 -7 16 -11 22 -7 6 3 7 1 3 -6 -4
-6 -3 -17 2 -24 22 -27 31 -200 17 -343 -5 -56 -4 -92 5 -118 6 -20 13 -92 14
-159 3 -119 3 -122 31 -150 22 -23 34 -28 57 -23 15 3 28 2 28 -2 0 -7 191 -6
220 1 38 10 160 27 195 28 11 0 22 4 26 10 3 5 16 11 28 12 33 2 49 36 25 55
-12 9 -13 13 -4 10 10 -4 15 2 16 18 1 15 -4 24 -13 24 -9 0 -11 5 -6 13 12
19 14 47 3 47 -6 0 -10 4 -10 10 0 5 7 7 15 4 8 -4 17 1 21 10 6 17 44 23 44
7 0 -10 75 -26 108 -22 16 1 22 -4 22 -18 0 -10 7 -21 14 -24 10 -4 13 -1 9 9
-3 8 1 14 11 14 9 0 16 -7 16 -16 0 -11 6 -13 19 -9 11 3 26 -1 37 -12 17 -17
17 -17 12 4 -4 16 -2 20 8 16 8 -3 14 -11 14 -18 0 -9 10 -13 28 -10 15 1 35
-4 44 -12 10 -9 24 -13 33 -10 17 7 45 -1 45 -13 0 -4 -10 -11 -22 -17 -17 -7
-11 -9 30 -9 30 0 52 4 52 10 0 6 5 3 11 -6 5 -10 20 -18 33 -18 19 0 22 -4
18 -25 -3 -17 -11 -25 -26 -26 -11 0 -15 -3 -8 -6 6 -2 10 -9 7 -13 -3 -5 -12
-7 -20 -4 -8 4 -18 -1 -21 -10 -3 -9 -11 -16 -18 -16 -6 0 -22 -9 -36 -20 -25
-19 -2 -20 3218 -20 l3242 0 0 5120 0 5120 -1122 0 -1123 0 -12 -27 c-7 -15
-13 -35 -13 -45 0 -10 -4 -18 -10 -18 -5 0 -10 -7 -10 -16 0 -10 6 -14 14 -11
10 4 13 1 9 -9 -8 -21 -17 -17 -37 17 -11 18 -14 29 -8 25 10 -6 42 45 42 69
0 6 -13 12 -29 12 -19 0 -27 -5 -24 -13z m141 -6 c-3 -7 -18 -14 -34 -16 l-29
-3 25 15 c32 18 43 19 38 4z m60 -48 c5 -13 3 -13 -11 -2 -9 8 -21 11 -26 8
-5 -4 -13 -1 -16 5 -5 7 2 9 21 7 15 -2 30 -10 32 -18z m-103 -11 c-17 -7 -16
-9 10 -8 46 2 52 -1 27 -12 -13 -5 -20 -13 -17 -19 11 -18 -7 -10 -26 12 -25
28 -24 38 4 37 21 0 21 -1 2 -10z m185 -43 c0 -3 -4 -8 -10 -11 -5 -3 -10 -1
-10 4 0 6 5 11 10 11 6 0 10 -2 10 -4z m-160 -106 c0 -5 -4 -10 -10 -10 -5 0
-10 5 -10 10 0 6 5 10 10 10 6 0 10 -4 10 -10z m80 -32 c0 -13 -9 -10 -33 13
l-22 21 28 -13 c15 -7 27 -16 27 -21z m207 -30 c-3 -8 -6 -5 -6 6 -1 11 2 17
5 13 3 -3 4 -12 1 -19z m-207 -58 c0 -5 -5 -10 -11 -10 -5 0 -7 5 -4 10 3 6 8
10 11 10 2 0 4 -4 4 -10z m-103 -24 c-7 -14 -16 -21 -20 -17 -11 11 2 41 18
41 10 0 11 -5 2 -24z m13 -56 c-19 -13 -30 -13 -30 0 0 6 10 10 23 10 18 0 19
-2 7 -10z m-103 -61 c-5 -4 -6 -12 -2 -19 5 -8 3 -11 -6 -8 -16 5 -19 37 -5
56 8 11 11 10 17 -5 3 -10 2 -21 -4 -24z m79 -12 c-2 -7 -5 -5 -5 5 -1 9 -8
15 -18 13 -10 -1 -12 0 -5 2 6 3 12 10 12 16 0 7 5 4 11 -6 6 -10 8 -23 5 -30z
m80 3 c0 -20 -7 -25 -19 -13 -4 3 -2 12 4 20 15 17 15 17 15 -7z m-109 -16
c-3 -3 -12 -4 -19 -1 -8 3 -5 6 6 6 11 1 17 -2 13 -5z m33 -30 c0 -7 -8 -10
-20 -7 -11 3 -20 8 -20 12 0 4 9 7 20 7 11 0 20 -6 20 -12z m50 -15 c0 -5 -4
-9 -10 -9 -5 0 -10 7 -10 16 0 8 5 12 10 9 6 -3 10 -10 10 -16z m47 15 c-3 -3
-12 -4 -19 -1 -8 3 -5 6 6 6 11 1 17 -2 13 -5z m-121 -28 c22 -23 17 -42 -6
-21 -19 17 -26 35 -14 35 3 0 12 -6 20 -14z m-62 -36 c1 -16 -2 -30 -6 -30 -5
0 -8 17 -8 37 0 43 13 37 14 -7z m49 -10 c9 -14 21 -18 33 -14 16 5 16 4 4 -5
-23 -17 -36 -13 -54 14 -20 30 -4 34 17 5z m95 -18 c-13 -6 -39 19 -32 30 3 5
14 1 24 -9 9 -10 13 -20 8 -21z m-83 -32 c3 -5 1 -10 -4 -10 -6 0 -11 5 -11
10 0 6 2 10 4 10 3 0 8 -4 11 -10z m10 -40 c-3 -6 4 -10 16 -10 12 0 20 -3 16
-6 -9 -9 -57 5 -57 16 0 6 7 10 16 10 8 0 12 -4 9 -10z m-44 -15 c-1 -15 -24
-12 -29 3 -3 9 2 13 12 10 10 -1 17 -7 17 -13z m29 -45 c0 -5 -5 -10 -11 -10
-5 0 -7 5 -4 10 3 6 8 10 11 10 2 0 4 -4 4 -10z m-15 -30 c3 -5 1 -10 -4 -10
-6 0 -11 5 -11 10 0 6 2 10 4 10 3 0 8 -4 11 -10z m145 -30 c0 -5 -2 -10 -4
-10 -3 0 -8 5 -11 10 -3 6 -1 10 4 10 6 0 11 -4 11 -10z m-165 -10 c3 -5 1
-10 -4 -10 -6 0 -11 5 -11 10 0 6 2 10 4 10 3 0 8 -4 11 -10z m45 -5 c0 -8 -4
-15 -10 -15 -5 0 -10 -11 -10 -25 0 -14 -4 -25 -10 -25 -13 0 -13 6 2 47 12
34 28 44 28 18z m80 5 c0 -5 -4 -10 -10 -10 -5 0 -10 5 -10 10 0 6 5 10 10 10
6 0 10 -4 10 -10z m-43 -36 c-3 -3 -12 -4 -19 -1 -8 3 -5 6 6 6 11 1 17 -2 13
-5z m8 -64 c-3 -5 -13 -10 -21 -10 -8 0 -14 5 -14 10 0 6 9 10 21 10 11 0 17
-4 14 -10z m-65 -20 c0 -11 -4 -20 -10 -20 -5 0 -10 9 -10 20 0 11 5 20 10 20
6 0 10 -9 10 -20z m-60 0 c13 -8 13 -10 -2 -10 -9 0 -20 5 -23 10 -8 13 5 13
25 0z m-52 -7 c-35 -9 -19 -30 22 -30 22 0 40 4 40 10 0 6 2 8 5 5 3 -3 3 -11
0 -19 -8 -21 -76 -19 -98 2 -18 17 -18 17 0 28 10 6 25 10 33 10 11 -1 10 -3
-2 -6z m153 -43 c5 0 9 -8 8 -17 0 -11 -3 -13 -6 -5 -2 6 -9 10 -14 6 -5 -3
-8 7 -8 23 1 17 3 21 6 11 2 -10 9 -18 14 -18z m36 8 c-3 -8 -6 -5 -6 6 -1 11
2 17 5 13 3 -3 4 -12 1 -19z m-77 -12 c0 -11 -19 -15 -25 -6 -3 5 1 10 9 10 9
0 16 -2 16 -4z m-135 -46 c3 -5 -1 -10 -9 -10 -9 0 -16 5 -16 10 0 6 4 10 9
10 6 0 13 -4 16 -10z m75 -8 c0 -13 -12 -22 -22 -16 -10 6 -1 24 13 24 5 0 9
-4 9 -8z m-135 -42 c3 -5 1 -10 -4 -10 -6 0 -11 5 -11 10 0 6 2 10 4 10 3 0 8
-4 11 -10z m105 -10 c0 -5 -4 -10 -9 -10 -6 0 -13 5 -16 10 -3 6 1 10 9 10 9
0 16 -4 16 -10z m50 3 c0 -5 -5 -15 -10 -23 -7 -12 -9 -10 -7 8 1 19 17 33 17
15z m17 -55 c-3 -8 -6 -5 -6 6 -1 11 2 17 5 13 3 -3 4 -12 1 -19z m-79 -46
c-5 -27 -28 -26 -26 1 1 16 7 23 16 20 7 -3 12 -12 10 -21z m-38 -37 c0 -24
-5 -35 -15 -35 -15 0 -21 -21 -8 -33 12 -13 12 -58 0 -54 -7 2 -11 15 -11 28
1 13 -5 28 -12 32 -20 11 -17 24 6 30 15 4 20 14 20 36 0 17 5 31 10 31 6 0
10 -16 10 -35z m60 -10 c0 -21 -28 -31 -43 -16 -9 9 -8 11 6 6 12 -5 17 -2 17
9 0 9 5 16 10 16 6 0 10 -7 10 -15z m2225 -15 c-3 -5 2 -10 12 -10 13 0 19 -8
21 -26 1 -14 9 -32 17 -40 13 -13 13 -17 1 -30 -8 -8 -19 -14 -25 -14 -6 0
-11 -5 -11 -11 0 -6 7 -9 15 -5 9 3 15 0 15 -9 0 -9 -6 -12 -16 -8 -13 5 -15
2 -10 -15 4 -11 2 -23 -4 -27 -5 -3 -10 -1 -10 4 0 6 -7 11 -16 11 -14 0 -15
-2 -3 -17 12 -14 12 -15 -1 -10 -8 4 -23 10 -32 13 -10 4 -18 10 -18 15 0 5 8
9 18 9 15 1 16 1 1 10 -9 5 -19 21 -23 34 -8 32 9 116 25 127 19 12 52 11 44
-1z m-2266 -32 c0 -7 -4 -22 -9 -33 -7 -17 -9 -15 -9 13 -1 17 4 32 9 32 6 0
10 -6 9 -12z m31 -28 c0 -5 -4 -10 -9 -10 -6 0 -13 5 -16 10 -3 6 1 10 9 10 9
0 16 -4 16 -10z m-107 -67 c-18 -6 -16 -23 2 -23 16 0 31 -43 20 -59 -3 -6
-15 -11 -26 -11 -12 0 -19 -6 -17 -14 2 -8 -1 -15 -7 -14 -5 0 -8 5 -6 12 3 6
5 29 5 51 1 22 5 46 10 54 6 10 6 16 -2 19 -7 2 -9 8 -6 14 4 6 13 3 23 -7 12
-13 13 -19 4 -22z m104 15 c-3 -8 -6 -5 -6 6 -1 11 2 17 5 13 3 -3 4 -12 1
-19z m-42 -28 c-3 -5 -10 -10 -16 -10 -5 0 -9 5 -9 10 0 6 7 10 16 10 8 0 12
-4 9 -10z m30 -10 c3 -5 1 -10 -4 -10 -6 0 -11 5 -11 10 0 6 2 10 4 10 3 0 8
-4 11 -10z m-147 -22 c17 -17 15 -39 -6 -66 -15 -20 -20 -21 -30 -10 -8 10 -9
25 -1 51 11 39 18 44 37 25z m132 -28 c0 -13 -1 -13 -10 0 -5 8 -10 22 -10 30
0 13 1 13 10 0 5 -8 10 -22 10 -30z m635 30 c-3 -5 1 -10 9 -10 8 0 19 -6 23
-12 4 -7 15 -13 23 -13 10 0 14 -8 12 -24 -2 -15 0 -21 7 -17 7 5 11 -3 11
-19 0 -15 -4 -24 -10 -20 -5 3 -10 1 -10 -5 0 -6 7 -13 15 -17 14 -5 14 -7 0
-23 -11 -12 -13 -20 -6 -24 7 -4 8 -34 5 -79 -12 -160 -11 -207 5 -207 13 -1
13 -3 -2 -11 -12 -7 -16 -17 -12 -30 4 -12 2 -19 -7 -19 -8 0 -6 -5 5 -11 21
-12 14 -46 -12 -66 -15 -12 -14 -14 4 -28 16 -13 17 -19 8 -34 -10 -16 -9 -20
3 -25 8 -3 13 -10 9 -15 -3 -5 -1 -12 4 -16 6 -3 7 -13 4 -22 -6 -15 -7 -14
-14 3 -6 14 -8 9 -8 -19 -1 -23 3 -36 9 -32 15 9 12 -8 -6 -33 -15 -22 -15
-24 4 -29 14 -3 18 -11 15 -24 -3 -10 -9 -19 -13 -19 -13 0 -5 -65 10 -77 12
-10 12 -12 1 -13 -11 0 -11 -3 -1 -15 7 -9 8 -15 2 -15 -6 0 -9 -20 -7 -47 1
-27 -1 -53 -6 -59 -6 -8 -2 -14 13 -19 19 -6 20 -8 6 -12 -10 -2 -18 -11 -18
-19 0 -8 8 -15 18 -15 16 -1 16 -2 0 -6 -10 -2 -18 -9 -18 -14 0 -6 5 -7 10
-4 6 3 10 2 10 -4 0 -5 -6 -12 -12 -14 -10 -4 -10 -8 1 -15 9 -6 10 -12 3 -16
-6 -4 -9 -12 -7 -19 15 -50 15 -69 1 -64 -10 4 -13 1 -9 -9 3 -7 10 -14 17
-14 17 0 14 -50 -4 -50 -11 -1 -11 -3 3 -11 14 -8 17 -18 12 -37 -12 -47 -12
-112 -1 -112 6 0 4 -4 -4 -9 -8 -6 -19 -7 -25 -5 -5 3 -1 -2 10 -11 17 -14 18
-17 5 -26 -12 -8 -12 -12 -2 -16 10 -4 9 -9 -5 -20 -10 -8 -12 -11 -4 -7 11 6
13 1 8 -23 -3 -17 -1 -35 6 -42 8 -8 8 -11 -1 -11 -8 0 -10 -12 -7 -35 2 -20
1 -34 -3 -31 -12 7 -9 -78 2 -86 7 -5 3 -8 -8 -8 -15 0 -16 -3 -7 -14 8 -10 9
-15 1 -18 -6 -2 -13 -31 -16 -65 -4 -53 -2 -62 13 -66 14 -4 13 -5 -4 -6 -14
-1 -24 6 -28 19 -3 11 -10 20 -15 20 -5 0 -7 -6 -4 -14 3 -8 -3 -16 -15 -19
-15 -3 -21 -13 -21 -31 0 -14 -5 -26 -11 -26 -6 0 -8 7 -5 16 10 26 -12 46
-37 33 -16 -9 -19 -9 -15 2 8 20 -10 62 -22 54 -5 -3 -10 3 -10 14 0 12 3 21
8 21 4 0 8 11 8 25 1 16 -3 25 -13 25 -11 0 -14 7 -10 22 4 12 1 28 -5 35 -8
10 -8 20 2 38 11 20 11 27 0 40 -10 12 -10 19 -2 27 16 16 15 29 -1 22 -10 -3
-14 4 -14 26 0 21 5 30 16 30 10 0 5 8 -14 21 -24 16 -26 19 -7 14 26 -7 27 0
7 48 -19 46 -19 53 0 37 9 -7 19 -10 23 -6 4 4 -1 14 -12 21 -10 8 -15 19 -11
25 4 6 1 17 -5 25 -10 12 -10 18 -1 29 9 11 9 15 -1 19 -10 3 -10 9 -2 23 13
24 7 54 -12 54 -8 0 -14 5 -14 10 0 6 6 10 13 10 8 0 7 4 -3 10 -12 8 -12 10
5 10 19 1 19 1 2 14 -13 10 -15 15 -5 18 15 6 18 79 3 91 -7 6 -6 10 1 13 7 3
9 14 7 25 -5 16 -8 18 -14 7 -6 -8 -9 2 -9 30 0 23 4 42 9 42 5 0 7 -10 4 -22
-4 -19 -3 -20 6 -8 14 19 14 53 1 45 -15 -9 -7 30 10 50 13 16 13 17 -5 12
-17 -6 -20 -2 -21 23 -1 17 2 30 6 30 4 0 7 16 8 35 1 19 -3 35 -8 35 -6 0
-10 5 -10 11 0 6 7 8 16 5 10 -4 14 -1 11 6 -2 7 -12 12 -21 12 -16 -2 -16 -1
0 17 13 14 14 22 6 32 -9 10 -7 18 7 33 16 18 17 23 4 40 -12 16 -12 20 4 31
15 12 15 13 -8 14 -13 0 -18 3 -11 6 6 2 12 11 12 18 0 7 -6 16 -12 18 -10 4
-9 8 2 16 13 10 13 12 0 22 -13 9 -13 10 2 6 25 -8 31 5 10 23 -15 11 -18 20
-12 35 l9 20 0 -20 c1 -16 3 -17 10 -6 6 10 4 25 -5 42 -17 33 -18 43 -4 34 6
-3 10 -4 10 0 0 3 -4 14 -10 25 -5 11 -14 29 -20 40 -14 27 -13 33 5 26 9 -3
15 0 15 9 0 8 -7 15 -16 15 -9 0 -14 6 -11 13 2 6 11 11 20 11 9 -1 14 3 11 8
-4 5 -15 8 -25 5 -10 -3 -22 -1 -25 4 -3 5 0 9 6 9 6 0 18 7 26 15 9 8 11 15
5 15 -6 0 -11 7 -11 15 0 8 4 15 9 15 5 0 11 9 14 19 3 13 1 18 -9 14 -7 -2
-21 1 -31 7 -17 11 -17 11 1 6 15 -5 17 -2 13 14 -3 11 -1 20 4 20 5 0 9 -5 9
-12 0 -6 2 -9 5 -6 11 11 -8 39 -22 34 -9 -4 -13 -1 -9 6 3 7 9 21 12 32 6 16
8 15 18 -10 l12 -28 1 37 c1 20 -2 36 -5 35 -21 -2 -42 3 -42 12 0 5 7 7 17 3
14 -5 15 -1 9 35 -4 26 -2 42 4 42 5 0 11 -12 11 -27 2 -25 2 -25 6 -5 3 17 9
21 24 17 14 -5 19 -2 19 10 0 12 6 16 20 12 11 -3 18 -1 14 4 -3 5 16 9 41 9
28 0 44 -4 40 -10z m-830 -50 c-3 -5 -10 -10 -16 -10 -5 0 -9 5 -9 10 0 6 7
10 16 10 8 0 12 -4 9 -10z m327 -18 c-7 -2 -12 -15 -12 -28 0 -14 -4 -23 -8
-20 -10 6 -9 36 2 54 4 7 12 9 19 5 8 -5 8 -8 -1 -11z m-122 -6 c0 -3 -4 -8
-10 -11 -5 -3 -10 -1 -10 4 0 6 5 11 10 11 6 0 10 -2 10 -4z m80 -96 c-8 -5
-17 -7 -19 -4 -3 3 1 9 9 14 8 5 17 7 19 4 3 -3 -1 -9 -9 -14z m60 0 c0 -5 -5
-10 -11 -10 -5 0 -7 5 -4 10 3 6 8 10 11 10 2 0 4 -4 4 -10z m-160 -20 c0 -5
-4 -10 -9 -10 -6 0 -13 5 -16 10 -3 6 1 10 9 10 9 0 16 -4 16 -10z m-50 -20
c0 -5 -7 -10 -15 -10 -8 0 -15 5 -15 10 0 6 7 10 15 10 8 0 15 -4 15 -10z
m213 -15 c4 -8 2 -17 -3 -20 -6 -4 -10 3 -10 14 0 25 6 27 13 6z m-158 -5 c3
-6 -1 -7 -9 -4 -18 7 -21 14 -7 14 6 0 13 -4 16 -10z m-91 -24 c-6 -16 -24
-23 -24 -8 0 10 22 33 27 28 2 -2 1 -11 -3 -20z m61 14 c3 -5 1 -10 -4 -10 -6
0 -11 5 -11 10 0 6 2 10 4 10 3 0 8 -4 11 -10z m252 4 c-3 -3 -12 -4 -19 -1
-8 3 -5 6 6 6 11 1 17 -2 13 -5z m-177 -8 c0 -3 -4 -8 -10 -11 -5 -3 -10 -1
-10 4 0 6 5 11 10 11 6 0 10 -2 10 -4z m27 -28 c-3 -8 -6 -5 -6 6 -1 11 2 17
5 13 3 -3 4 -12 1 -19z m-140 -17 c0 -21 -4 -28 -14 -24 -8 3 -12 12 -9 20 3
8 6 19 6 24 0 5 4 9 8 9 5 0 9 -13 9 -29z m118 -11 c3 -5 -1 -10 -10 -10 -9 0
-13 5 -10 10 3 6 8 10 10 10 2 0 7 -4 10 -10z m375 -10 c0 -5 -8 -10 -17 -10
-15 0 -16 2 -3 10 19 12 20 12 20 0z m-460 -45 c0 -8 -4 -15 -10 -15 -5 0 -10
7 -10 15 0 8 5 15 10 15 6 0 10 -7 10 -15z m40 -19 c0 -3 -4 -8 -10 -11 -5 -3
-10 -1 -10 4 0 6 5 11 10 11 6 0 10 -2 10 -4z m-50 -61 c13 -14 20 -25 15 -25
-4 0 -18 11 -31 25 -13 14 -20 25 -15 25 4 0 18 -11 31 -25z m70 -15 c0 -5 -4
-10 -9 -10 -6 0 -13 5 -16 10 -3 6 1 10 9 10 9 0 16 -4 16 -10z m-104 -22
c-10 -6 -20 -7 -24 -3 -9 8 20 25 31 18 5 -3 2 -10 -7 -15z m-796 -30 c0 -16
-3 -19 -11 -11 -6 6 -8 16 -5 22 11 17 16 13 16 -11z m910 8 c0 -3 -4 -8 -10
-11 -5 -3 -10 -1 -10 4 0 6 5 11 10 11 6 0 10 -2 10 -4z m-830 -15 c0 -6 -4
-13 -10 -16 -5 -3 -10 1 -10 9 0 9 5 16 10 16 6 0 10 -4 10 -9z m591 -16 c0
-5 -9 -11 -21 -13 -20 -3 -27 8 -13 22 10 9 34 3 34 -9z m-491 -14 c0 -15 -17
-22 -36 -14 -16 6 -16 7 2 14 27 11 34 10 34 0z m694 -7 c3 -8 2 -12 -4 -9 -6
3 -10 10 -10 16 0 14 7 11 14 -7z m-64 -26 c0 -13 -23 -5 -28 10 -2 7 2 10 12
6 9 -3 16 -11 16 -16z m780 -48 c0 -5 -5 -10 -11 -10 -5 0 -7 5 -4 10 3 6 8
10 11 10 2 0 4 -4 4 -10z m-1637 -7 c-7 -2 -19 -2 -25 0 -7 3 -2 5 12 5 14 0
19 -2 13 -5z m830 -43 c10 -10 7 -12 -13 -6 -14 3 -31 6 -38 6 -7 0 -11 4 -8
8 8 13 44 8 59 -8z m-76 -26 c-3 -3 -12 -4 -19 -1 -8 3 -5 6 6 6 11 1 17 -2
13 -5z m-597 -18 c0 -11 -19 -15 -25 -6 -3 5 1 10 9 10 9 0 16 -2 16 -4z m57
-2 c-3 -3 -12 -4 -19 -1 -8 3 -5 6 6 6 11 1 17 -2 13 -5z m49 -19 c-3 -8 -1
-15 3 -15 5 0 12 6 14 13 3 7 6 6 6 -5 1 -25 -20 -33 -35 -13 -14 19 -10 35 8
35 5 0 8 -7 4 -15z m494 5 c0 -5 -9 -10 -21 -10 -11 0 -17 5 -14 10 3 6 13 10
21 10 8 0 14 -4 14 -10z m80 -20 c0 -5 -6 -10 -14 -10 -8 0 -18 5 -21 10 -3 6
3 10 14 10 12 0 21 -4 21 -10z m-125 -20 c-3 -5 -13 -10 -21 -10 -8 0 -14 5
-14 10 0 6 9 10 21 10 11 0 17 -4 14 -10z m685 0 c0 -5 -4 -10 -10 -10 -5 0
-10 5 -10 10 0 6 5 10 10 10 6 0 10 -4 10 -10z m-380 -20 c0 -5 -8 -10 -17
-10 -15 0 -16 2 -3 10 19 12 20 12 20 0z m-295 -29 c-5 -22 -2 -32 12 -40 17
-10 16 -10 -3 -11 -14 0 -24 8 -28 23 -10 38 -7 57 10 57 12 0 14 -7 9 -29z
m40 10 c3 -5 1 -12 -5 -16 -5 -3 -10 1 -10 9 0 18 6 21 15 7z m-135 -46 c0 -8
-4 -15 -10 -15 -5 0 -10 7 -10 15 0 8 5 15 10 15 6 0 10 -7 10 -15z m-458 -27
c-9 -9 -15 -9 -24 0 -9 9 -7 12 12 12 19 0 21 -3 12 -12z m668 2 c0 -5 -2 -10
-4 -10 -3 0 -8 5 -11 10 -3 6 -1 10 4 10 6 0 11 -4 11 -10z m85 0 c-3 -5 -16
-10 -28 -9 -20 1 -20 2 3 9 14 4 26 8 28 9 2 1 0 -3 -3 -9z m-295 -16 c0 -8
-4 -12 -10 -9 -5 3 -10 10 -10 16 0 5 5 9 10 9 6 0 10 -7 10 -16z m60 -6 c0
-16 -3 -16 -20 -6 -11 7 -20 16 -20 20 0 4 9 6 20 5 12 -1 20 -8 20 -19z
m-200 -8 c0 -11 -6 -20 -14 -20 -18 0 -29 16 -21 30 11 18 35 11 35 -10z m250
5 c0 -8 -4 -15 -10 -15 -5 0 -10 7 -10 15 0 8 5 15 10 15 6 0 10 -7 10 -15z
m-150 -21 c0 -8 -4 -14 -10 -14 -5 0 -10 9 -10 21 0 11 5 17 10 14 6 -3 10
-13 10 -21z m17 -16 c-3 -8 -6 -5 -6 6 -1 11 2 17 5 13 3 -3 4 -12 1 -19z m55
5 c12 -10 18 -12 18 -4 0 7 5 9 11 5 8 -4 7 -9 -2 -16 -9 -6 -5 -7 12 -2 15 3
30 1 33 -5 5 -7 -5 -11 -28 -11 -20 0 -36 5 -36 10 0 6 -7 10 -16 10 -11 0
-14 -5 -9 -17 12 -29 11 -46 -4 -51 -10 -3 -11 2 -6 18 6 20 4 22 -14 17 -13
-3 -21 0 -21 8 0 7 9 15 20 18 13 3 18 10 14 21 -8 21 5 20 28 -1z m265 -9
c-3 -3 -12 -4 -19 -1 -8 3 -5 6 6 6 11 1 17 -2 13 -5z m-388 -59 c8 0 16 -6
19 -13 3 -9 -3 -13 -19 -10 -15 2 -25 11 -27 23 -2 11 0 16 5 10 4 -5 14 -10
22 -10z m298 -17 c-3 -7 -5 -2 -5 12 0 14 2 19 5 13 2 -7 2 -19 0 -25z m-101
-13 c-3 -20 -20 -20 -24 -1 -2 9 3 16 11 16 9 0 14 -7 13 -15z m-49 -10 c5
-18 -14 -37 -33 -32 -17 4 -17 6 4 12 26 9 29 22 5 29 -15 4 -15 5 1 3 11 -1
21 -6 23 -12z m993 -5 c0 -5 -5 -10 -11 -10 -5 0 -7 5 -4 10 3 6 8 10 11 10 2
0 4 -4 4 -10z m-1281 -53 c35 -11 40 -15 25 -21 -11 -4 -20 -3 -22 3 -2 6 -9
11 -16 11 -8 0 -13 -15 -14 -40 -2 -35 1 -40 21 -41 48 -3 52 -4 49 -21 -2
-10 2 -18 8 -18 7 0 8 -5 3 -12 -4 -7 -8 -17 -8 -22 0 -6 -19 -11 -42 -12 -41
-2 -42 -1 -29 18 11 16 12 26 4 44 -6 13 -14 24 -17 24 -11 0 -7 80 4 81 5 0
1 4 -10 9 -31 13 -5 11 44 -3z m124 -1 c4 -11 1 -13 -11 -10 -12 4 -9 -1 7
-15 14 -13 31 -19 42 -16 9 3 20 1 24 -5 4 -6 -4 -10 -20 -10 -14 0 -28 -7
-31 -15 -4 -8 -9 -15 -13 -15 -12 0 -34 76 -27 89 10 15 23 14 29 -3z m-47
-22 c-3 -8 1 -30 8 -49 14 -32 12 -45 -6 -45 -4 0 -8 14 -8 30 0 17 -4 30 -10
30 -5 0 -10 -4 -10 -8 0 -4 -11 -9 -25 -10 -16 -1 -25 3 -25 13 0 8 9 15 20
15 10 0 24 9 30 20 13 23 35 27 26 4z m244 6 c0 -5 -7 -10 -16 -10 -8 0 -12 5
-9 10 3 6 10 10 16 10 5 0 9 -4 9 -10z m65 0 c-3 -5 -10 -10 -16 -10 -5 0 -9
5 -9 10 0 6 7 10 16 10 8 0 12 -4 9 -10z m-25 -46 c0 -2 -9 -4 -21 -4 -11 0
-18 4 -14 10 5 8 35 3 35 -6z m-108 -26 c18 -21 24 -34 16 -37 -7 -2 -14 2
-16 9 -3 8 -15 24 -28 37 -13 13 -18 23 -11 23 6 0 24 -15 39 -32z m43 23 c3
-5 1 -12 -5 -16 -5 -3 -10 1 -10 9 0 18 6 21 15 7z m-82 -41 c3 -11 1 -23 -4
-26 -5 -3 -9 2 -9 10 0 10 -6 13 -17 9 -16 -6 -16 -5 -4 10 18 22 28 21 34 -3z
m-73 -24 c0 -17 -26 -3 -27 14 -2 18 0 18 13 6 8 -8 14 -17 14 -20z m-2485
-62 c421 -133 457 -149 442 -186 -6 -16 -112 -79 -415 -247 -182 -102 -182
-102 -225 -91 -107 28 -603 193 -616 205 -8 8 -10 21 -6 34 6 20 46 45 485
304 63 37 102 54 115 50 11 -3 110 -34 220 -69z m2668 69 c-7 -2 -19 -2 -25 0
-7 3 -2 5 12 5 14 0 19 -2 13 -5z m-233 -7 c0 -3 -4 -8 -10 -11 -5 -3 -10 -1
-10 4 0 6 5 11 10 11 6 0 10 -2 10 -4z m105 -17 c11 -17 -1 -21 -15 -4 -8 9
-8 15 -2 15 6 0 14 -5 17 -11z m-41 -24 c-4 -8 -10 -12 -15 -9 -11 6 -2 24 11
24 5 0 7 -7 4 -15z m93 9 c-3 -3 -12 -4 -19 -1 -8 3 -5 6 6 6 11 1 17 -2 13
-5z m140 -14 c3 -10 2 -11 -4 -4 -4 6 -15 14 -23 17 -11 5 -9 6 4 4 11 -1 21
-9 23 -17z m-312 -10 c-3 -5 -13 -10 -21 -10 -8 0 -14 5 -14 10 0 6 9 10 21
10 11 0 17 -4 14 -10z m-100 -18 c0 -7 5 -12 10 -12 6 0 10 6 10 12 0 7 9 14
19 16 14 3 17 0 13 -11 -9 -24 17 -39 57 -31 20 3 36 10 36 15 0 13 -27 11
-50 -3 -10 -7 -22 -9 -26 -5 -11 11 -2 15 44 23 40 6 42 5 42 -18 0 -22 -4
-25 -27 -21 -26 3 -27 3 -5 -6 26 -12 29 -21 5 -15 -10 2 -25 0 -33 -6 -13 -8
-13 -11 2 -26 9 -10 21 -13 29 -8 9 5 8 9 -7 15 -13 5 -14 8 -4 8 9 1 23 -8
33 -20 11 -13 13 -19 5 -17 -17 3 -72 -12 -78 -21 -9 -14 -50 -23 -50 -12 0 6
9 11 19 11 11 0 22 4 25 9 3 5 -12 4 -35 -1 -30 -8 -43 -8 -52 1 -9 9 -8 11 6
5 9 -3 24 -1 32 6 8 7 21 10 28 7 16 -6 44 9 35 18 -3 3 -29 2 -57 -3 -47 -8
-51 -8 -46 8 4 12 -1 19 -16 23 -12 3 -18 10 -14 16 4 8 11 7 20 -3 14 -13
119 -15 132 -2 6 6 -8 7 -79 7 -31 0 -38 4 -38 20 0 10 -5 19 -11 19 -5 0 -7
5 -4 11 8 13 30 6 30 -9z m482 2 c-3 -3 -12 -4 -19 -1 -8 3 -5 6 6 6 11 1 17
-2 13 -5z m-287 -34 c0 -5 -5 -10 -11 -10 -5 0 -7 5 -4 10 3 6 8 10 11 10 2 0
4 -4 4 -10z m157 4 c-3 -3 -12 -4 -19 -1 -8 3 -5 6 6 6 11 1 17 -2 13 -5z
m-77 -44 c0 -5 -2 -10 -4 -10 -3 0 -8 5 -11 10 -3 6 -1 10 4 10 6 0 11 -4 11
-10z m-50 -30 c0 -5 -8 -10 -17 -10 -15 0 -16 2 -3 10 19 12 20 12 20 0z m800
-10 c0 -5 -4 -10 -9 -10 -6 0 -13 5 -16 10 -3 6 1 10 9 10 9 0 16 -4 16 -10z
m-740 -4 c0 -2 -9 -6 -20 -9 -11 -3 -18 -1 -14 4 5 9 34 13 34 5z m-143 -12
c-3 -3 -12 -4 -19 -1 -8 3 -5 6 6 6 11 1 17 -2 13 -5z m-99 -46 c-3 -7 -18
-15 -35 -19 -25 -5 -30 -3 -26 8 3 8 12 12 19 9 7 -3 16 -1 19 4 9 14 27 12
23 -2z m105 -36 c-3 -12 -9 -19 -15 -16 -5 3 -5 11 2 19 6 7 8 21 4 31 -5 16
-4 16 5 3 5 -8 7 -25 4 -37z m-393 5 c0 -5 -4 -5 -10 -2 -5 3 -10 14 -10 23 0
15 2 15 10 2 5 -8 10 -19 10 -23z m340 13 c0 -5 -11 -10 -25 -10 -16 0 -25 -6
-25 -16 0 -10 6 -14 14 -11 10 4 13 1 9 -9 -8 -22 -39 -12 -35 11 5 32 62 64
62 35z m130 -14 c0 -2 -7 -6 -15 -10 -8 -3 -15 -1 -15 4 0 6 7 10 15 10 8 0
15 -2 15 -4z m-110 -16 c0 -5 -4 -10 -10 -10 -5 0 -10 5 -10 10 0 6 5 10 10
10 6 0 10 -4 10 -10z m67 -22 c-3 -7 -5 -2 -5 12 0 14 2 19 5 13 2 -7 2 -19 0
-25z m-417 2 c0 -5 -5 -10 -11 -10 -5 0 -7 5 -4 10 3 6 8 10 11 10 2 0 4 -4 4
-10z m350 -31 c0 -5 -4 -9 -10 -9 -5 0 -10 7 -10 16 0 8 5 12 10 9 6 -3 10
-10 10 -16z m39 -21 c-9 -16 -14 -19 -17 -9 -2 7 2 17 9 22 20 13 21 11 8 -13z
m-142 -10 c-3 -8 -6 -5 -6 6 -1 11 2 17 5 13 3 -3 4 -12 1 -19z m213 1 c0 -11
-4 -18 -10 -14 -5 3 -7 12 -3 20 7 21 13 19 13 -6z m-1861 -145 c-1 -80 -6
-131 -11 -128 -6 4 -8 15 -5 25 3 11 2 19 -2 19 -9 0 -8 46 2 56 11 11 9 134
-3 134 -5 0 -10 -5 -10 -11 0 -5 -4 -7 -10 -4 -6 4 -5 11 3 19 6 8 15 12 20 9
4 -2 7 1 7 6 0 6 -4 11 -10 11 -5 0 -10 5 -10 11 0 8 5 7 16 -1 12 -11 15 -36
13 -146z m1631 63 c0 -4 -6 -2 -14 5 -8 7 -12 17 -9 22 5 8 23 -12 23 -27z
m40 23 c-12 -7 -8 -10 15 -11 29 0 29 -1 7 -11 -16 -8 -26 -8 -33 -1 -13 13
-4 33 14 33 7 0 6 -4 -3 -10z m95 0 c-3 -5 -1 -10 4 -10 6 0 11 -5 11 -11 0
-8 -5 -8 -15 1 -13 11 -12 30 1 30 3 0 2 -4 -1 -10z m75 0 c-8 -5 -19 -10 -25
-10 -5 0 -3 5 5 10 8 5 20 10 25 10 6 0 3 -5 -5 -10z m-167 -86 c-3 -8 -9 -14
-13 -14 -10 0 -19 47 -11 55 9 10 30 -26 24 -41z m67 36 c0 -5 -4 -10 -10 -10
-5 0 -10 5 -10 10 0 6 5 10 10 10 6 0 10 -4 10 -10z m-1565 -10 c-4 -6 -8 -46
-11 -89 l-4 -79 29 -10 c24 -8 29 -17 34 -57 4 -26 7 -292 7 -592 0 -514 -1
-549 -21 -640 -12 -53 -23 -110 -25 -127 -3 -28 -19 -54 -28 -45 -11 12 -71
141 -87 187 -17 49 -18 98 -19 609 l-1 555 52 149 c34 98 57 149 66 149 8 0
11 -5 8 -10z m1537 -18 c-8 -5 -10 -16 -5 -27 6 -17 5 -18 -9 -5 -17 16 -7 40
16 40 7 0 6 -3 -2 -8z m153 -22 c3 -5 1 -10 -4 -10 -6 0 -11 5 -11 10 0 6 2
10 4 10 3 0 8 -4 11 -10z m-175 -30 c0 -5 -4 -10 -9 -10 -6 0 -13 5 -16 10 -3
6 1 10 9 10 9 0 16 -4 16 -10z m-20 -34 c0 -3 -4 -8 -10 -11 -5 -3 -10 -1 -10
4 0 6 5 11 10 11 6 0 10 -2 10 -4z m587 -38 c-3 -8 -6 -5 -6 6 -1 11 2 17 5
13 3 -3 4 -12 1 -19z m-587 -98 c0 -5 -2 -10 -4 -10 -3 0 -8 5 -11 10 -3 6 -1
10 4 10 6 0 11 -4 11 -10z m-320 -90 c0 -5 -5 -10 -11 -10 -5 0 -7 5 -4 10 3
6 8 10 11 10 2 0 4 -4 4 -10z m1498 -38 c2 -7 -3 -12 -12 -12 -9 0 -16 7 -16
16 0 17 22 14 28 -4z m-1511 -8 c-3 -3 -12 -4 -19 -1 -8 3 -5 6 6 6 11 1 17
-2 13 -5z m-13 -23 c3 -5 -3 -11 -14 -14 -13 -3 -20 0 -20 9 0 15 26 19 34 5z
m1527 -4 c-1 -12 -15 -9 -19 4 -3 6 1 10 8 8 6 -3 11 -8 11 -12z m-1494 -23
c-3 -3 -12 -4 -19 -1 -8 3 -5 6 6 6 11 1 17 -2 13 -5z m-32 -26 c19 -5 19 -5
1 -13 -18 -8 -36 7 -36 30 0 6 4 5 8 -1 4 -7 16 -14 27 -16z m-26 -113 c5 2
14 -2 21 -10 11 -13 10 -14 -4 -9 -9 3 -16 1 -16 -6 0 -7 -5 -6 -15 4 -8 8
-15 23 -15 33 1 17 1 17 11 0 6 -9 14 -15 18 -12z m-504 -35 c14 0 29 -16 51
-57 l32 -58 66 3 66 2 -4 -26 c-3 -15 -15 -37 -27 -50 -23 -25 -14 -34 11 -11
7 6 -4 -9 -24 -35 -43 -54 -59 -64 -25 -16 17 23 19 33 10 36 -8 3 -6 9 8 19
12 8 26 24 32 36 7 13 -7 4 -37 -23 -27 -25 -62 -55 -77 -67 -26 -20 -27 -24
-17 -55 l10 -33 -5 31 c-3 24 2 37 21 54 13 13 24 20 24 15 0 -5 7 0 15 11 12
16 14 16 15 3 0 -9 -7 -22 -15 -29 -17 -14 -15 -24 21 -146 13 -45 24 -84 24
-87 0 -13 -84 3 -103 20 -12 10 -41 33 -64 50 l-41 32 -25 -19 c-14 -11 -42
-43 -62 -70 -65 -88 -78 -60 -50 105 15 89 20 77 -61 142 -21 17 -36 34 -32
38 4 4 42 17 84 29 l77 21 30 78 c21 53 34 74 41 67 5 -5 19 -10 31 -10z m470
-20 c-6 -9 -9 -9 -16 1 -10 17 0 34 13 21 6 -6 7 -16 3 -22z m-525 -426 c0 -8
-19 -13 -24 -6 -3 5 1 9 9 9 8 0 15 -2 15 -3z m-46 -69 c-7 -18 -20 -19 -30
-3 -4 6 -3 8 4 4 6 -3 13 -2 17 4 9 15 15 12 9 -5z m1239 -202 l-63 -4 -2 -92
-2 -92 -3 84 c-2 46 -2 90 1 98 4 9 24 12 68 11 l63 -2 -62 -3z m-838 -63 c4
-6 -1 -7 -10 -3 -13 4 -16 0 -15 -18 3 -32 -10 -89 -21 -89 -12 0 -21 18 -10
22 5 1 11 23 14 48 l6 45 -13 -45 c-9 -28 -14 -37 -15 -22 -1 30 -21 28 -21
-3 0 -16 -6 -25 -15 -25 -8 0 -15 8 -15 18 0 15 2 15 11 2 7 -11 9 -3 5 30 -3
25 -3 38 2 30 11 -22 42 -22 42 1 0 13 7 19 24 19 14 0 28 -4 31 -10z m68 -20
c20 -1 20 -2 4 -11 -21 -12 -37 -4 -36 19 0 11 3 12 6 5 2 -7 14 -13 26 -13z
m77 6 c0 -3 -4 -8 -10 -11 -5 -3 -10 -1 -10 4 0 6 5 11 10 11 6 0 10 -2 10 -4z
m-128 -51 c3 -14 2 -25 -3 -25 -4 0 -14 -3 -23 -6 -9 -3 -16 -1 -16 5 0 6 7
11 16 11 11 0 14 6 9 20 -3 11 -2 20 3 20 5 0 12 -11 14 -25z m85 -37 c-3 -8
-6 -5 -6 6 -1 11 2 17 5 13 3 -3 4 -12 1 -19z m67 1 c-3 -5 -10 -7 -15 -3 -5
3 -7 10 -3 15 3 5 10 7 15 3 5 -3 7 -10 3 -15z m-334 -9 c0 -5 -5 -10 -11 -10
-5 0 -7 5 -4 10 3 6 8 10 11 10 2 0 4 -4 4 -10z m72 -8 c-19 -3 -21 -6 -11
-18 9 -11 8 -14 -9 -14 -11 0 -22 8 -25 19 -6 26 -3 29 35 22 27 -4 29 -6 10
-9z m158 2 c0 -8 -4 -12 -10 -9 -5 3 -10 10 -10 16 0 5 5 9 10 9 6 0 10 -7 10
-16z m-1235 -10 l24 -16 -29 -80 c-16 -45 -31 -83 -33 -85 -2 -2 -150 -12
-328 -23 -178 -11 -418 -27 -534 -34 -205 -14 -211 -14 -231 6 -41 37 -37 138
7 175 9 7 184 22 499 41 593 36 594 36 625 16z m1205 -5 c0 -11 -4 -17 -10
-14 -18 11 -40 -3 -34 -20 5 -12 10 -13 17 -6 15 15 27 14 27 -1 0 -8 17 -14
45 -16 31 -1 45 2 45 10 0 10 2 10 8 1 4 -7 37 -14 72 -16 36 -2 -8 -4 -97 -5
-162 -2 -163 -2 -164 -24 -2 -72 4 -144 14 -150 6 -3 88 -5 181 -3 199 5 238
-2 256 -46 18 -42 5 -51 -71 -46 l-64 3 68 2 c66 2 73 6 61 36 -4 11 -14 14
-33 11 -21 -4 -22 -4 -6 3 l20 9 -20 6 c-11 3 -92 6 -180 6 -271 -1 -245 -4
-245 36 0 28 -3 33 -16 28 -12 -4 -15 -2 -12 8 3 8 11 13 17 12 6 -2 11 4 11
13 0 10 -6 14 -15 11 -8 -4 -17 -1 -21 4 -3 6 -14 9 -24 6 -10 -2 -23 -1 -30
3 -7 4 1 10 22 15 18 4 27 9 21 12 -15 6 -17 23 -3 23 5 0 12 -11 16 -25 8
-32 32 -17 32 20 0 19 -6 25 -22 26 -19 0 -19 1 4 10 14 6 35 8 47 6 12 -2 24
2 27 9 3 8 -1 13 -12 12 -44 -3 -53 1 -42 22 6 11 17 20 25 20 18 0 20 -17 3
-23 -7 -2 -9 -8 -5 -13 5 -5 16 0 26 12 15 19 35 31 54 33 4 1 7 -8 7 -20z
m35 -28 c-3 -6 -11 -11 -16 -11 -5 0 -4 6 3 14 14 16 24 13 13 -3z m702 -43
c-2 -13 -4 -3 -4 22 0 25 2 35 4 23 2 -13 2 -33 0 -45z m-653 45 c-5 -5 -12
-12 -16 -18 -4 -6 -8 -2 -8 8 0 9 7 17 17 17 9 0 12 -3 7 -7z m2271 -8 c28 -8
79 -18 115 -23 l65 -9 -65 -2 c-50 -2 -60 -4 -42 -11 12 -5 22 -14 22 -20 0
-5 11 -10 25 -10 14 0 25 -4 25 -9 0 -4 -12 -6 -27 -3 -28 5 -28 5 -9 -17 11
-11 15 -21 10 -21 -5 0 -2 -5 6 -11 11 -8 12 -12 3 -16 -25 -10 -14 -44 17
-54 16 -6 27 -15 24 -21 -3 -5 -12 -7 -20 -4 -19 7 -23 -3 -33 -109 l-8 -90
-3 90 c-1 50 -2 93 -1 98 0 4 -6 7 -14 7 -18 0 -20 -17 -4 -22 8 -3 7 -14 -5
-35 -9 -18 -16 -42 -16 -53 0 -14 -8 -24 -20 -27 -16 -4 -18 -8 -9 -19 6 -8
10 -14 8 -15 -2 0 -16 -2 -30 -4 -14 -2 -43 -13 -64 -25 -31 -17 -47 -20 -87
-15 -35 5 -48 4 -48 -5 0 -7 -15 -51 -34 -99 -19 -47 -104 -268 -190 -491 -85
-223 -187 -484 -225 -580 l-69 -175 -118 -8 c-91 -6 -120 -5 -130 5 -7 7 -87
200 -178 428 -91 228 -210 522 -264 653 -55 130 -97 239 -93 241 3 2 72 7 154
11 l147 7 16 -38 c83 -201 107 -254 116 -254 5 0 6 5 3 10 -8 13 18 8 27 -5
17 -23 15 4 -4 47 -13 31 -25 45 -34 41 -8 -3 -14 0 -14 7 0 6 5 8 10 5 6 -3
10 2 10 12 0 10 16 -18 36 -61 19 -43 33 -85 30 -93 -3 -8 -2 -11 3 -8 15 9
23 -32 11 -57 -10 -20 -10 -21 3 -6 12 15 22 -3 85 -163 40 -99 72 -187 71
-197 0 -13 -3 -12 -11 5 -10 21 -12 22 -25 5 -14 -16 -14 -16 -9 0 3 10 1 20
-4 23 -4 3 -7 -5 -6 -17 5 -37 17 -68 27 -68 6 0 7 -4 4 -10 -3 -5 -2 -17 3
-27 8 -14 14 -8 35 33 23 45 116 282 268 679 29 77 58 143 64 147 5 4 53 8
105 8 52 0 100 4 106 8 6 4 12 35 13 69 l2 62 -33 4 -33 4 38 1 c25 1 37 7 37
17 0 7 8 19 18 24 16 10 16 10 0 11 -10 0 -18 5 -18 10 0 6 -10 11 -22 11 -17
1 -19 2 -5 6 18 5 20 19 17 103 -2 75 -6 80 -58 81 l-47 1 53 10 c28 5 52 13
52 17 0 5 28 9 62 10 34 1 63 2 64 4 9 8 77 4 119 -8z m-2488 -1 c-3 -3 -12
-4 -19 -1 -8 3 -5 6 6 6 11 1 17 -2 13 -5z m-130 -51 c-3 -10 -5 -4 -5 12 0
17 2 24 5 18 2 -7 2 -21 0 -30z m765 -23 c34 -20 34 -20 51 1 10 11 22 17 28
13 8 -4 7 -9 -2 -15 -10 -6 -5 -9 14 -9 20 0 26 4 20 13 -4 6 5 4 20 -6 15 -9
27 -13 27 -7 0 5 5 10 10 10 6 0 10 -6 10 -14 0 -19 50 -15 51 4 4 44 20 -98
20 -170 0 -87 -17 -307 -20 -257 0 16 -7 27 -15 27 -9 0 -12 -7 -9 -19 3 -13
-2 -20 -19 -24 -33 -9 -50 -8 -44 2 4 5 -3 7 -14 4 -11 -3 -20 -6 -20 -7 0 -1
28 -17 63 -35 34 -18 76 -51 94 -73 28 -34 31 -43 21 -61 -10 -20 -10 -21 5
-9 14 12 17 8 28 -30 6 -24 13 -56 16 -73 l4 -30 -20 25 c-11 14 -21 29 -21
33 0 5 -4 5 -10 2 -6 -3 -10 -53 -10 -113 0 -115 -15 -194 -51 -264 -28 -55
-114 -138 -166 -162 l-41 -18 20 -34 c19 -32 37 -49 23 -21 -4 6 3 1 15 -13
21 -24 22 -19 3 27 -5 14 -2 13 16 -4 14 -13 20 -26 16 -34 -5 -7 -4 -10 3 -5
13 8 64 -63 55 -77 -3 -6 -1 -7 5 -3 7 4 12 3 12 -3 0 -5 6 -16 13 -23 37 -36
136 -200 132 -218 -2 -11 1 -23 7 -26 7 -5 9 0 6 14 -9 31 -1 27 18 -10 16
-30 16 -32 1 -19 -14 11 -17 11 -17 0 -1 -10 -4 -8 -11 4 -12 21 -31 23 -23 2
5 -12 -6 -15 -67 -15 -41 0 -117 -3 -169 -6 l-95 -6 -36 59 c-20 32 -83 133
-139 226 l-103 167 -72 0 -72 0 -7 130 c-4 72 -4 135 -1 140 3 6 48 10 100 10
114 0 239 16 278 36 16 9 35 31 43 49 41 99 -19 194 -134 211 -46 7 -339 -10
-350 -20 -3 -4 -5 -228 -4 -500 l1 -494 -130 -7 c-72 -4 -133 -5 -135 -2 -3 3
-8 296 -11 651 l-6 646 59 0 c61 1 155 5 409 20 156 9 288 0 370 -25 25 -7 45
-9 45 -4 0 5 -9 9 -20 9 -11 0 -20 7 -20 15 0 9 -7 18 -15 21 -9 4 -15 19 -15
35 0 16 -4 29 -10 29 -5 0 -7 7 -4 15 4 8 1 15 -6 15 -6 0 -9 8 -6 18 4 10 -1
27 -9 38 -20 27 -18 36 6 29 15 -5 19 -4 15 4 -4 6 -16 11 -27 11 -14 0 -18 4
-12 13 12 19 10 31 -7 44 -11 9 -12 15 -4 23 9 9 16 6 28 -12 l16 -23 -6 31
c-5 26 -3 32 16 37 29 8 19 42 -23 80 -37 32 -31 35 15 7z m-755 -120 c-2 -19
-1 -44 3 -55 6 -17 8 -16 14 10 l8 30 10 -25 c7 -20 5 -28 -13 -43 -19 -15
-20 -21 -11 -42 7 -15 8 -25 2 -25 -6 0 -10 -33 -10 -75 0 -43 -4 -75 -10 -75
-6 0 -10 77 -9 213 1 159 4 201 11 167 5 -25 7 -61 5 -80z m93 60 c8 -5 11
-12 7 -16 -4 -4 -15 0 -24 9 -18 18 -8 23 17 7z m-57 -20 c-6 -22 -15 -19 -19
5 -1 8 4 15 11 15 8 0 11 -7 8 -20z m407 10 c0 -5 -9 -10 -21 -10 -11 0 -17 5
-14 10 3 6 13 10 21 10 8 0 14 -4 14 -10z m58 -16 c3 -15 1 -16 -8 -7 -7 6
-20 9 -28 5 -15 -5 -15 -4 -2 11 18 20 34 17 38 -9z m42 -8 c0 -3 -4 -8 -10
-11 -5 -3 -10 -1 -10 4 0 6 5 11 10 11 6 0 10 -2 10 -4z m-460 -26 c0 -21 -15
-27 -25 -10 -7 12 2 30 16 30 5 0 9 -9 9 -20z m117 -46 c-3 -3 -12 -4 -19 -1
-8 3 -5 6 6 6 11 1 17 -2 13 -5z m-97 -19 c0 -9 -6 -12 -15 -9 -8 4 -15 10
-15 15 0 5 7 9 15 9 8 0 15 -7 15 -15z m37 -17 c-3 -8 -6 -5 -6 6 -1 11 2 17
5 13 3 -3 4 -12 1 -19z m-77 -18 c0 -5 -7 -10 -15 -10 -8 0 -15 5 -15 10 0 6
7 10 15 10 8 0 15 -4 15 -10z m273 -7 c-7 -2 -21 -2 -30 0 -10 3 -4 5 12 5 17
0 24 -2 18 -5z m125 0 c-10 -2 -26 -2 -35 0 -10 3 -2 5 17 5 19 0 27 -2 18 -5z
m-891 -9 c-3 -3 -12 -4 -19 -1 -8 3 -5 6 6 6 11 1 17 -2 13 -5z m678 -9 c-23
-8 -58 -33 -82 -60 -48 -52 -57 -51 -17 2 32 42 81 73 114 73 20 -1 17 -4 -15
-15z m-185 1 c0 -3 -4 -8 -10 -11 -5 -3 -10 -1 -10 4 0 6 5 11 10 11 6 0 10
-2 10 -4z m-750 -36 c0 -5 -12 -10 -27 -9 l-28 1 25 8 c14 4 26 8 28 9 1 1 2
-3 2 -9z m720 -10 c0 -5 -4 -10 -10 -10 -5 0 -10 5 -10 10 0 6 5 10 10 10 6 0
10 -4 10 -10z m85 -100 c-4 -12 -9 -19 -12 -17 -3 3 -2 15 2 27 4 12 9 19 12
17 3 -3 2 -15 -2 -27z m675 -20 c0 -5 -7 -10 -15 -10 -8 0 -15 5 -15 10 0 6 7
10 15 10 8 0 15 -4 15 -10z m-1080 -81 c0 -5 -4 -9 -8 -9 -5 0 -9 7 -9 15 0 8
4 12 9 9 4 -3 8 -9 8 -15z m-290 -109 c0 -8 -9 3 -20 25 -25 50 -25 58 0 20
11 -16 20 -37 20 -45z m508 -87 c-15 -2 -42 -2 -60 0 -18 2 -6 4 27 4 33 0 48
-2 33 -4z m1169 -105 c-3 -8 -6 -5 -6 6 -1 11 2 17 5 13 3 -3 4 -12 1 -19z
m-800 -165 c-3 -10 -5 -4 -5 12 0 17 2 24 5 18 2 -7 2 -21 0 -30z m-1320 -648
c-19 -49 -39 -90 -46 -91 -6 -1 -7 0 -1 3 6 3 6 11 0 22 -10 21 -8 54 9 95 9
22 14 26 25 17 10 -8 16 -5 24 15 7 14 13 33 13 42 1 14 2 14 6 1 2 -8 -11
-55 -30 -104z m-6 82 c-10 -9 -11 -8 -5 6 3 10 9 15 12 12 3 -3 0 -11 -7 -18z
m-1746 -396 c-3 -6 -11 -11 -16 -11 -5 0 -4 6 3 14 14 16 24 13 13 -3z m50 9
c3 -5 1 -10 -4 -10 -6 0 -11 5 -11 10 0 6 2 10 4 10 3 0 8 -4 11 -10z m390
-10 c-11 -5 -27 -9 -35 -9 -13 -1 -13 0 0 9 8 5 24 9 35 9 l20 0 -20 -9z m5
-30 c0 -5 -4 -10 -10 -10 -5 0 -10 5 -10 10 0 6 5 10 10 10 6 0 10 -4 10 -10z
m153 -7 c-7 -2 -19 -2 -25 0 -7 3 -2 5 12 5 14 0 19 -2 13 -5z m32 -23 c3 -5
-1 -10 -9 -10 -9 0 -16 5 -16 10 0 6 4 10 9 10 6 0 13 -4 16 -10z m75 -30 c0
-5 -2 -10 -4 -10 -3 0 -8 5 -11 10 -3 6 -1 10 4 10 6 0 11 -4 11 -10z m254
-64 c-4 -11 -20 -16 -53 -17 l-46 -2 56 -7 c31 -4 62 -11 69 -15 9 -5 11 -4 6
3 -4 7 -15 12 -24 12 -14 0 -14 2 -3 9 8 5 20 7 27 4 7 -2 22 0 33 7 12 6 21
7 21 1 0 -5 -6 -11 -12 -14 -7 -2 -1 -2 13 0 18 3 36 -4 55 -21 l29 -25 -35 6
c-19 3 -42 9 -51 13 -8 5 -22 4 -30 -1 -7 -5 -12 -9 -9 -10 3 0 14 -2 25 -4
48 -9 115 -123 102 -173 -3 -12 -5 -11 -6 5 0 12 -6 25 -12 29 -8 5 -10 -1 -7
-19 3 -14 1 -32 -4 -39 -7 -9 -8 -8 -4 5 3 10 2 16 -2 13 -5 -3 -14 -30 -21
-60 -22 -99 -77 -156 -158 -163 -72 -7 -129 27 -166 98 -26 49 -28 62 -25 136
3 72 7 86 33 125 17 23 45 50 63 58 18 9 30 19 26 22 -6 7 60 28 89 28 9 0 17
5 17 12 0 6 2 9 5 6 3 -3 3 -13 -1 -22z m-284 4 c0 -5 -4 -10 -10 -10 -5 0
-10 5 -10 10 0 6 5 10 10 10 6 0 10 -4 10 -10z m1340 -51 c0 -14 -17 -10 -23
5 -4 10 -1 13 9 9 7 -3 14 -9 14 -14z m-444 -5 c19 -9 39 -25 45 -35 11 -21
29 -26 29 -8 0 5 -5 7 -12 3 -7 -5 -8 -3 -4 5 6 9 13 8 28 -6 17 -15 18 -18 4
-21 -18 -4 -18 -3 -21 -52 -3 -66 -16 -99 -49 -128 l-33 -28 24 -35 c14 -19
33 -51 44 -72 17 -33 18 -38 4 -43 -26 -10 -43 3 -96 76 -44 59 -56 70 -81 70
-29 0 -29 0 -28 -57 3 -97 4 -95 -32 -91 l-33 3 -3 218 -2 217 91 0 c63 0 101
-5 125 -16z m50 1 c21 -21 -5 -21 -32 0 -18 13 -18 14 -1 15 10 0 25 -7 33
-15z m351 7 c8 -5 12 -65 13 -207 1 -110 1 -206 1 -212 -1 -8 -14 -13 -31 -13
l-30 0 0 88 c0 48 -3 144 -7 213 -6 135 -8 129 37 138 3 0 10 -3 17 -7z m1216
-8 c25 -8 51 -22 57 -30 14 -16 7 -50 -15 -78 -15 -19 -15 -19 -41 5 -21 19
-36 24 -81 24 -47 0 -58 -4 -79 -28 -56 -65 -52 -181 9 -231 39 -33 114 -37
141 -7 22 24 26 75 6 77 -8 0 -23 2 -32 2 -14 2 -18 11 -18 42 l0 40 70 0 70
0 0 -68 c0 -121 -54 -192 -152 -199 -76 -6 -133 25 -174 95 -38 63 -48 119
-34 191 27 142 140 211 273 165z m-822 -29 c23 -39 152 -185 157 -180 8 7 10
39 11 133 l1 82 28 0 29 0 6 -122 c10 -172 9 -318 -2 -318 -5 0 -58 58 -118
130 l-108 129 -3 -129 -3 -130 -28 0 c-27 0 -28 2 -35 61 -7 74 -8 363 -1 371
12 12 52 -5 66 -27z m29 25 c0 -5 -8 -10 -17 -10 -15 0 -16 2 -3 10 19 12 20
12 20 0z m-375 -20 c3 -6 -1 -7 -9 -4 -18 7 -21 14 -7 14 6 0 13 -4 16 -10z
m400 -31 c-4 -5 -1 -9 4 -9 6 0 11 -8 11 -17 0 -15 -4 -13 -19 7 -19 24 -19
46 0 34 5 -3 7 -10 4 -15z m-418 -11 c-3 -8 -6 -5 -6 6 -1 11 2 17 5 13 3 -3
4 -12 1 -19z m-327 -23 c1 13 5 9 11 -13 6 -19 8 -41 6 -50 -3 -10 -5 -4 -6
11 0 16 -5 26 -10 22 -12 -7 -33 29 -23 39 3 4 10 -1 13 -11 7 -16 8 -16 9 2z
m-1353 -67 c-3 -7 -5 -2 -5 12 0 14 2 19 5 13 2 -7 2 -19 0 -25z m-277 -63 c0
-30 -3 -55 -7 -55 -5 0 -6 25 -5 55 5 71 12 71 12 0z m-10 -84 c0 -11 -11 -32
-24 -48 l-24 -27 2 34 c1 46 46 85 46 41z m-603 -53 c-3 -7 -5 -2 -5 12 0 14
2 19 5 13 2 -7 2 -19 0 -25z m3196 -43 c-3 -9 -8 -14 -10 -11 -3 3 -2 9 2 15
9 16 15 13 8 -4z m-2773 -28 c11 3 10 0 -2 -10 -22 -17 -23 -31 -3 -23 8 3 15
1 15 -4 0 -6 -9 -10 -20 -10 -13 0 -20 7 -20 20 0 25 -17 26 -23 3 -2 -10 -3
-8 -2 5 1 12 -2 22 -7 22 -5 0 -3 7 4 15 11 12 15 12 28 -4 9 -10 22 -16 30
-14z m-306 -152 c3 -8 1 -15 -4 -15 -6 0 -10 7 -10 15 0 8 2 15 4 15 2 0 6 -7
10 -15z m-129 -75 c-3 -5 -10 -10 -16 -10 -5 0 -9 5 -9 10 0 6 7 10 16 10 8 0
12 -4 9 -10z m-55 -30 c0 -5 -4 -10 -9 -10 -6 0 -13 5 -16 10 -3 6 1 10 9 10
9 0 16 -4 16 -10z m-10 -41 c0 -11 -4 -18 -10 -14 -5 3 -7 12 -3 20 7 21 13
19 13 -6z m40 11 c0 -5 -4 -10 -10 -10 -5 0 -10 -7 -10 -15 0 -8 5 -15 10 -15
6 0 10 -4 10 -10 0 -12 -10 -13 -27 -2 -15 10 -4 62 13 62 8 0 14 -4 14 -10z
m40 -60 c0 -5 -4 -10 -10 -10 -5 0 -10 5 -10 10 0 6 5 10 10 10 6 0 10 -4 10
-10z m-50 -145 c0 -8 -4 -15 -10 -15 -5 0 -10 7 -10 15 0 8 5 15 10 15 6 0 10
-7 10 -15z m-1172 -262 c-10 -2 -26 -2 -35 0 -10 3 -2 5 17 5 19 0 27 -2 18
-5z m-1048 -243 c0 -5 -4 -10 -10 -10 -5 0 -10 5 -10 10 0 6 5 10 10 10 6 0
10 -4 10 -10z m1260 -8 c0 -5 -39 -7 -87 -5 -127 6 -133 11 -15 12 56 0 102
-3 102 -7z m244 -10 c2 -4 -39 -6 -92 -4 -142 5 -152 9 -25 11 61 0 114 -3
117 -7z m186 -6 c8 -2 -24 -4 -72 -5 -49 0 -88 3 -88 7 0 7 125 5 160 -2z
m325 -16 l100 -7 -140 -1 c-77 0 -160 3 -185 7 -39 7 -34 9 40 9 47 0 130 -4
185 -8z m-2088 -6 c-3 -3 -12 -4 -19 -1 -8 3 -5 6 6 6 11 1 17 -2 13 -5z
m2386 -11 c-24 -2 -62 -2 -85 0 -24 2 -5 4 42 4 47 0 66 -2 43 -4z m150 -10
c-7 -2 -19 -2 -25 0 -7 3 -2 5 12 5 14 0 19 -2 13 -5z m-2592 -56 c15 -11 15
-15 3 -32 -14 -18 -14 -18 -14 3 0 12 -4 22 -10 22 -5 0 -10 5 -10 10 0 13 11
12 31 -3z m127 -22 c-3 -3 -9 2 -12 12 -6 14 -5 15 5 6 7 -7 10 -15 7 -18z
m-58 5 c0 -5 -6 -10 -14 -10 -8 0 -18 5 -21 10 -3 6 3 10 14 10 12 0 21 -4 21
-10z m120 -60 c0 -5 -4 -10 -10 -10 -5 0 -10 5 -10 10 0 6 5 10 10 10 6 0 10
-4 10 -10z m1810 -20 c0 -12 -8 -12 -35 0 -18 8 -17 9 8 9 15 1 27 -3 27 -9z
m-1840 -20 c0 -5 -2 -10 -4 -10 -3 0 -8 5 -11 10 -3 6 -1 10 4 10 6 0 11 -4
11 -10z m-160 -40 c0 -5 -7 -10 -16 -10 -8 0 -12 5 -9 10 3 6 10 10 16 10 5 0
9 -4 9 -10z m125 0 c3 -5 -1 -10 -10 -10 -9 0 -13 5 -10 10 3 6 8 10 10 10 2
0 7 -4 10 -10z m49 -95 c-4 -8 -8 -15 -10 -15 -2 0 -4 7 -4 15 0 8 4 15 10 15
5 0 7 -7 4 -15z m1834 -10 c-3 -3 -9 2 -12 12 -6 14 -5 15 5 6 7 -7 10 -15 7
-18z m-13 -65 c-3 -5 -12 -10 -18 -10 -7 0 -6 4 3 10 19 12 23 12 15 0z m-15
-128 c0 -4 -5 -13 -12 -20 -9 -9 -8 -12 4 -12 11 0 15 -6 11 -21 -5 -19 -3
-20 18 -14 23 7 23 6 4 -8 -19 -15 -45 -13 -45 3 0 11 -71 1 -84 -11 -6 -5
-16 -9 -23 -9 -10 0 -10 6 3 25 9 14 23 25 31 25 8 0 11 5 7 12 -5 8 0 9 15 5
17 -4 21 -2 17 8 -3 9 0 12 8 9 8 -3 17 -1 21 5 7 13 25 15 25 3z m-120 -42
c0 -5 -4 -10 -10 -10 -5 0 -10 5 -10 10 0 6 5 10 10 10 6 0 10 -4 10 -10z
m160 6 c0 -3 -4 -8 -10 -11 -5 -3 -10 -1 -10 4 0 6 5 11 10 11 6 0 10 -2 10
-4z m-186 -25 c3 -5 -1 -12 -10 -15 -9 -4 -14 -13 -10 -21 3 -8 1 -15 -4 -15
-11 0 -12 6 -4 38 7 23 19 29 28 13z m-55 -15 c9 -10 8 -15 -4 -20 -10 -4 -15
1 -15 14 0 24 4 25 19 6z m1241 -1066 c0 -5 -2 -10 -4 -10 -3 0 -8 5 -11 10
-3 6 -1 10 4 10 6 0 11 -4 11 -10z"/>
<path d="M7752 8789 c2 -6 8 -10 13 -10 5 0 11 4 13 10 2 6 -4 11 -13 11 -9 0
-15 -5 -13 -11z"/>
<path d="M7690 8760 c0 -5 5 -10 10 -10 6 0 10 5 10 10 0 6 -4 10 -10 10 -5 0
-10 -4 -10 -10z"/>
<path d="M8515 8730 c3 -5 8 -10 11 -10 2 0 4 5 4 10 0 6 -5 10 -11 10 -5 0
-7 -4 -4 -10z"/>
<path d="M8540 8549 c0 -5 5 -7 10 -4 6 3 10 8 10 11 0 2 -4 4 -10 4 -5 0 -10
-5 -10 -11z"/>
<path d="M8330 8336 c0 -9 5 -16 10 -16 6 0 10 4 10 9 0 6 -4 13 -10 16 -5 3
-10 -1 -10 -9z"/>
<path d="M8540 8230 c0 -5 5 -10 10 -10 6 0 10 5 10 10 0 6 -4 10 -10 10 -5 0
-10 -4 -10 -10z"/>
<path d="M8560 7336 c0 -9 5 -16 10 -16 6 0 10 4 10 9 0 6 -4 13 -10 16 -5 3
-10 -1 -10 -9z"/>
<path d="M8380 6880 c-8 -5 -12 -12 -9 -15 4 -3 12 1 19 10 14 17 11 19 -10 5z"/>
<path d="M8495 6821 c-3 -5 -1 -12 5 -16 5 -3 10 1 10 9 0 18 -6 21 -15 7z"/>
<path d="M8380 6795 c-10 -13 -9 -15 9 -15 11 0 21 4 21 9 0 18 -18 21 -30 6z"/>
<path d="M8440 6730 c0 -5 5 -10 11 -10 5 0 7 5 4 10 -3 6 -8 10 -11 10 -2 0
-4 -4 -4 -10z"/>
<path d="M6560 6010 c0 -5 5 -10 11 -10 5 0 7 5 4 10 -3 6 -8 10 -11 10 -2 0
-4 -4 -4 -10z"/>
<path d="M9101 5254 c0 -11 3 -14 6 -6 3 7 2 16 -1 19 -3 4 -6 -2 -5 -13z"/>
<path d="M9130 5251 c0 -6 5 -13 10 -16 6 -3 10 1 10 9 0 9 -4 16 -10 16 -5 0
-10 -4 -10 -9z"/>
<path d="M9193 5243 c-7 -2 -13 -11 -13 -18 0 -19 34 -11 38 8 4 17 -3 20 -25
10z"/>
<path d="M9050 5080 c0 -5 5 -10 11 -10 5 0 7 5 4 10 -3 6 -8 10 -11 10 -2 0
-4 -4 -4 -10z"/>
<path d="M8097 4729 c4 -13 8 -18 11 -10 2 7 -1 18 -6 23 -8 8 -9 4 -5 -13z"/>
<path d="M8110 4695 c0 -5 5 -17 10 -25 5 -8 10 -10 10 -5 0 6 -5 17 -10 25
-5 8 -10 11 -10 5z"/>
<path d="M8230 4405 c0 -5 5 -17 10 -25 5 -8 10 -10 10 -5 0 6 -5 17 -10 25
-5 8 -10 11 -10 5z"/>
<path d="M7500 5050 c0 -5 5 -10 10 -10 6 0 10 5 10 10 0 6 -4 10 -10 10 -5 0
-10 -4 -10 -10z"/>
<path d="M7555 4829 c-4 -6 -5 -12 -2 -15 2 -3 7 2 10 11 7 17 1 20 -8 4z"/>
<path d="M7566 4775 c-3 -9 0 -15 9 -15 8 0 15 7 15 15 0 8 -4 15 -9 15 -5 0
-11 -7 -15 -15z"/>
<path d="M7586 3775 c4 -8 11 -15 16 -15 6 0 5 6 -2 15 -7 8 -14 15 -16 15 -2
0 -1 -7 2 -15z"/>
<path d="M5494 3852 c3 -15 0 -22 -7 -19 -7 3 -12 -7 -13 -24 -1 -16 2 -29 5
-29 13 0 28 56 19 75 -7 17 -8 17 -4 -3z"/>
<path d="M4600 3230 c-56 -56 -53 -173 6 -221 16 -12 17 -12 11 4 -4 11 -3 16
3 12 6 -3 10 -12 10 -19 0 -22 82 -20 107 3 50 47 54 155 7 211 -22 26 -33 30
-75 30 -36 0 -54 -5 -69 -20z m14 -189 c-2 -2 -4 1 -4 8 0 7 -4 10 -8 7 -4 -2
-6 12 -3 32 l5 37 7 -40 c4 -22 5 -42 3 -44z"/>
<path d="M4851 3154 c0 -11 3 -14 6 -6 3 7 2 16 -1 19 -3 4 -6 -2 -5 -13z"/>
<path d="M5190 3191 l0 -58 41 -7 c60 -10 93 10 97 56 4 47 -24 68 -90 68
l-48 0 0 -59z m35 39 c3 -5 1 -10 -4 -10 -6 0 -11 5 -11 10 0 6 2 10 4 10 3 0
8 -4 11 -10z"/>
<path d="M3770 2999 c0 -5 5 -7 10 -4 6 3 10 8 10 11 0 2 -4 4 -10 4 -5 0 -10
-5 -10 -11z"/>
<path d="M2450 10215 c0 -8 2 -15 4 -15 2 0 6 7 10 15 3 8 1 15 -4 15 -6 0
-10 -7 -10 -15z"/>
<path d="M2495 10190 c3 -5 13 -10 21 -10 8 0 14 5 14 10 0 6 -9 10 -21 10
-11 0 -17 -4 -14 -10z"/>
<path d="M2210 10181 c0 -6 4 -13 10 -16 6 -3 7 1 4 9 -7 18 -14 21 -14 7z"/>
<path d="M7776 10181 c-4 -7 -5 -15 -2 -18 9 -9 19 4 14 18 -4 11 -6 11 -12 0z"/>
<path d="M7745 10170 c-3 -5 -1 -10 4 -10 6 0 11 5 11 10 0 6 -2 10 -4 10 -3
0 -8 -4 -11 -10z"/>
<path d="M2170 10160 c-9 -6 -10 -10 -3 -10 6 0 15 5 18 10 8 12 4 12 -15 0z"/>
<path d="M7860 10150 c0 -5 5 -10 10 -10 6 0 10 5 10 10 0 6 -4 10 -10 10 -5
0 -10 -4 -10 -10z"/>
<path d="M2350 10130 c0 -4 13 -10 29 -12 20 -3 27 0 24 8 -5 13 -53 16 -53 4z"/>
<path d="M7886 10123 c-11 -11 -6 -23 9 -23 8 0 15 4 15 9 0 13 -16 22 -24 14z"/>
<path d="M2510 10110 c19 -13 30 -13 30 0 0 6 -10 10 -22 10 -19 0 -20 -2 -8
-10z"/>
<path d="M2350 10084 c0 -11 5 -14 16 -10 9 3 21 6 27 6 16 0 -14 20 -30 20
-7 0 -13 -7 -13 -16z"/>
<path d="M7793 10085 c0 -8 4 -12 9 -9 5 3 6 10 3 15 -9 13 -12 11 -12 -6z"/>
<path d="M2098 10073 c6 -2 18 -2 25 0 6 3 1 5 -13 5 -14 0 -19 -2 -12 -5z"/>
<path d="M2150 10066 c0 -8 4 -17 9 -20 5 -4 7 3 4 14 -6 23 -13 26 -13 6z"/>
<path d="M2237 10039 c7 -7 15 -10 18 -7 3 3 -2 9 -12 12 -14 6 -15 5 -6 -5z"/>
<path d="M2334 10030 c0 -21 22 -35 31 -19 4 5 0 16 -9 24 -19 20 -22 19 -22
-5z"/>
<path d="M7776 10035 c4 -8 8 -15 10 -15 2 0 4 7 4 15 0 8 -4 15 -10 15 -5 0
-7 -7 -4 -15z"/>
<path d="M2173 10026 c-10 -11 -9 -15 3 -20 24 -9 31 -7 14 4 -13 8 -13 10 2
10 9 0 20 5 23 10 9 15 -28 11 -42 -4z"/>
<path d="M7820 10020 c0 -5 7 -10 15 -10 8 0 15 5 15 10 0 6 -7 10 -15 10 -8
0 -15 -4 -15 -10z"/>
<path d="M7900 10021 c0 -5 -10 -11 -22 -13 -24 -3 -37 -28 -15 -28 9 0 17 6
20 13 6 16 14 7 22 -26 6 -21 4 -27 -9 -27 -9 0 -16 7 -16 15 0 8 -4 15 -10
15 -5 0 -10 -5 -10 -11 0 -15 27 -40 42 -38 29 3 48 -2 46 -12 -2 -6 3 -14 10
-16 6 -3 12 3 12 11 0 9 -8 20 -17 23 -24 9 -34 25 -27 45 3 10 -3 21 -13 27
-10 6 -12 11 -5 11 14 0 17 20 2 20 -5 0 -10 -4 -10 -9z"/>
<path d="M2070 10012 c0 -6 9 -12 20 -15 11 -3 20 -3 20 -1 0 2 -9 8 -20 14
-11 6 -20 7 -20 2z"/>
<path d="M2382 10004 c-8 -9 -10 -23 -6 -37 7 -20 8 -19 15 13 9 41 8 43 -9
24z"/>
<path d="M7756 10012 c-3 -6 -1 -14 5 -17 14 -9 20 -2 10 14 -6 8 -11 9 -15 3z"/>
<path d="M2145 9990 c3 -5 8 -10 11 -10 2 0 4 5 4 10 0 6 -5 10 -11 10 -5 0
-7 -4 -4 -10z"/>
<path d="M2336 9981 c-4 -5 -2 -12 3 -15 5 -4 12 -2 15 3 4 5 2 12 -3 15 -5 4
-12 2 -15 -3z"/>
<path d="M7810 9969 c0 -11 5 -17 10 -14 6 3 10 13 10 21 0 8 -4 14 -10 14 -5
0 -10 -9 -10 -21z"/>
<path d="M7960 9980 c0 -5 5 -10 10 -10 6 0 10 5 10 10 0 6 -4 10 -10 10 -5 0
-10 -4 -10 -10z"/>
<path d="M2035 9970 c-3 -5 -1 -10 4 -10 6 0 11 5 11 10 0 6 -2 10 -4 10 -3 0
-8 -4 -11 -10z"/>
<path d="M2077 9973 c-4 -3 -7 -11 -7 -17 0 -6 5 -5 12 2 6 6 9 14 7 17 -3 3
-9 2 -12 -2z"/>
<path d="M2304 9948 c-4 -6 -3 -8 4 -4 5 3 13 0 15 -6 3 -8 6 -6 6 5 1 19 -14
23 -25 5z"/>
<path d="M7765 9951 c-3 -5 -1 -12 5 -16 5 -3 10 1 10 9 0 18 -6 21 -15 7z"/>
<path d="M2345 9930 c-3 -5 -1 -10 4 -10 6 0 11 5 11 10 0 6 -2 10 -4 10 -3 0
-8 -4 -11 -10z"/>
<path d="M7806 9924 c-4 -9 -4 -19 -1 -22 3 -3 11 0 17 6 9 9 9 15 1 23 -7 7
-12 5 -17 -7z"/>
<path d="M7840 9925 c0 -8 4 -15 10 -15 5 0 7 7 4 15 -4 8 -8 15 -10 15 -2 0
-4 -7 -4 -15z"/>
<path d="M2156 9914 c-4 -10 -1 -14 6 -12 15 5 23 28 10 28 -5 0 -13 -7 -16
-16z"/>
<path d="M7720 9916 c0 -2 7 -9 15 -16 13 -11 14 -10 9 4 -5 14 -24 23 -24 12z"/>
<path d="M2073 9896 c4 -14 47 -21 47 -8 0 5 -11 12 -25 15 -16 3 -24 0 -22
-7z"/>
<path d="M2350 9880 c0 -5 9 -10 20 -10 11 0 20 5 20 10 0 6 -9 10 -20 10 -11
0 -20 -4 -20 -10z"/>
<path d="M2148 9868 c10 -13 10 -17 0 -21 -8 -4 -7 -6 5 -6 9 -1 17 -7 17 -15
0 -8 5 -18 12 -22 8 -5 9 0 5 16 -3 13 -1 30 5 37 8 10 7 13 -5 13 -8 0 -24 3
-34 7 -15 6 -16 4 -5 -9z"/>
<path d="M7840 9864 c0 -8 5 -12 10 -9 6 3 10 10 10 16 0 5 -4 9 -10 9 -5 0
-10 -7 -10 -16z"/>
<path d="M2077 9856 c-4 -10 0 -12 14 -9 10 3 16 9 13 14 -8 13 -21 11 -27 -5z"/>
<path d="M7806 9863 c-11 -11 -6 -23 9 -23 8 0 15 4 15 9 0 13 -16 22 -24 14z"/>
<path d="M7750 9850 c-12 -8 -10 -10 8 -10 13 0 20 4 17 10 -7 12 -6 12 -25 0z"/>
<path d="M7883 9830 c-10 -11 -23 -20 -30 -20 -7 0 -13 -7 -13 -15 0 -8 5 -15
10 -15 6 0 13 7 16 15 4 8 12 15 20 15 8 0 14 6 14 14 0 8 6 17 13 19 9 4 9 6
-1 6 -7 1 -20 -8 -29 -19z"/>
<path d="M2206 9824 c-8 -21 -8 -24 4 -24 5 0 14 9 20 20 8 16 8 20 -4 20 -7
0 -17 -7 -20 -16z"/>
<path d="M2310 9828 c0 -12 38 -10 45 2 4 6 -5 9 -19 8 -15 -1 -26 -6 -26 -10z"/>
<path d="M7778 9823 c12 -2 32 -2 45 0 12 2 2 4 -23 4 -25 0 -35 -2 -22 -4z"/>
<path d="M2077 9804 c6 -15 23 -19 23 -5 0 5 -7 11 -14 14 -10 4 -13 1 -9 -9z"/>
<path d="M2138 9809 c-21 -12 -24 -29 -4 -29 7 0 16 9 19 20 3 11 4 20 4 20
-1 0 -10 -5 -19 -11z"/>
<path d="M2263 9802 c-19 -3 -21 -6 -11 -22 12 -18 12 -18 26 1 16 24 15 26
-15 21z"/>
<path d="M2103 9749 c-11 -11 -6 -49 6 -49 16 0 20 14 10 26 -8 10 -8 15 2 18
40 13 42 14 19 15 -15 1 -31 -4 -37 -10z"/>
<path d="M2180 9749 c0 -5 5 -7 10 -4 6 3 10 8 10 11 0 2 -4 4 -10 4 -5 0 -10
-5 -10 -11z"/>
<path d="M7742 9751 c-11 -7 -11 -9 2 -14 10 -4 16 -1 16 8 0 17 -1 17 -18 6z"/>
<path d="M7770 9749 c0 -5 5 -7 10 -4 6 3 10 8 10 11 0 2 -4 4 -10 4 -5 0 -10
-5 -10 -11z"/>
<path d="M7688 9743 c6 -2 18 -2 25 0 6 3 1 5 -13 5 -14 0 -19 -2 -12 -5z"/>
<path d="M2180 9715 c0 -8 5 -15 10 -15 6 0 10 7 10 15 0 8 -4 15 -10 15 -5 0
-10 -7 -10 -15z"/>
<path d="M2232 9705 c0 -16 2 -22 5 -12 2 9 2 23 0 30 -3 6 -5 -1 -5 -18z"/>
<path d="M7690 9710 c0 -5 9 -10 21 -10 11 0 17 5 14 10 -3 6 -13 10 -21 10
-8 0 -14 -4 -14 -10z"/>
<path d="M7745 9710 c-3 -5 1 -10 10 -10 9 0 13 5 10 10 -3 6 -8 10 -10 10 -2
0 -7 -4 -10 -10z"/>
<path d="M7789 9713 c-1 -5 -1 -12 0 -17 1 -5 -6 -17 -15 -27 -13 -15 -14 -19
-3 -19 13 0 39 42 39 62 0 10 -20 11 -21 1z"/>
<path d="M7830 9700 c0 -11 -5 -20 -12 -20 -6 0 -9 -2 -7 -5 3 -2 14 -2 26 1
14 4 19 11 16 25 -7 25 -23 24 -23 -1z"/>
<path d="M2065 9680 c-3 -5 1 -10 10 -10 9 0 13 5 10 10 -3 6 -8 10 -10 10 -2
0 -7 -4 -10 -10z"/>
<path d="M2171 9643 c-18 -63 -14 -78 22 -91 40 -14 57 -15 57 -3 0 6 -15 11
-32 13 -31 3 -33 6 -36 46 -2 24 2 50 9 58 8 9 8 14 1 14 -6 0 -16 -17 -21
-37z"/>
<path d="M2137 9642 c-3 -15 -2 -31 3 -35 4 -5 10 6 12 23 6 39 -8 50 -15 12z"/>
<path d="M2231 9654 c0 -11 3 -14 6 -6 3 7 2 16 -1 19 -3 4 -6 -2 -5 -13z"/>
<path d="M2050 9651 c0 -5 5 -13 10 -16 6 -3 10 -2 10 4 0 5 -4 13 -10 16 -5
3 -10 2 -10 -4z"/>
<path d="M7600 9650 c0 -5 5 -10 11 -10 5 0 7 5 4 10 -3 6 -8 10 -11 10 -2 0
-4 -4 -4 -10z"/>
<path d="M7665 9650 c-3 -5 -1 -10 4 -10 6 0 11 5 11 10 0 6 -2 10 -4 10 -3 0
-8 -4 -11 -10z"/>
<path d="M7710 9649 c0 -5 5 -7 10 -4 6 3 10 8 10 11 0 2 -4 4 -10 4 -5 0 -10
-5 -10 -11z"/>
<path d="M2196 9635 c-3 -9 0 -15 9 -15 16 0 20 16 6 24 -5 3 -11 -1 -15 -9z"/>
<path d="M2107 9615 c-4 -8 -2 -17 3 -20 6 -4 10 3 10 14 0 25 -6 27 -13 6z"/>
<path d="M7759 9628 c-7 -13 -4 -48 3 -48 6 0 8 7 4 15 -3 8 -1 15 4 15 6 0
10 5 10 10 0 9 -18 15 -21 8z"/>
<path d="M1835 9599 c-4 -6 -5 -12 -2 -15 2 -3 7 2 10 11 7 17 1 20 -8 4z"/>
<path d="M2215 9601 c-6 -11 13 -26 22 -17 4 3 1 6 -6 6 -7 0 -9 5 -6 10 3 6
4 10 1 10 -3 0 -7 -4 -11 -9z"/>
<path d="M7715 9600 c-3 -5 -1 -10 4 -10 6 0 11 5 11 10 0 6 -2 10 -4 10 -3 0
-8 -4 -11 -10z"/>
<path d="M7791 9584 c0 -11 3 -14 6 -6 3 7 2 16 -1 19 -3 4 -6 -2 -5 -13z"/>
<path d="M2127 9552 c-11 -12 -15 -31 -13 -56 2 -31 -1 -40 -18 -46 -20 -9
-20 -9 -1 -10 18 0 18 -2 -5 -20 -14 -11 -33 -20 -43 -20 -10 0 -16 -4 -13 -8
6 -10 54 -7 86 6 22 9 22 11 5 12 -17 1 -17 3 5 12 14 6 20 12 13 15 -9 3 -9
10 -1 29 13 29 28 32 21 5 -4 -16 3 -22 33 -30 21 -6 40 -8 43 -6 2 3 -1 5 -7
5 -6 0 -9 6 -6 14 4 9 -2 16 -17 18 -15 2 -23 10 -24 26 -1 12 3 22 9 22 6 0
4 5 -4 10 -11 7 -17 5 -22 -8 -6 -15 -7 -14 -7 3 -2 37 -16 48 -34 27z m23
-22 c0 -5 -5 -10 -11 -10 -5 0 -7 5 -4 10 3 6 8 10 11 10 2 0 4 -4 4 -10z"/>
<path d="M7781 9534 c0 -11 3 -14 6 -6 3 7 2 16 -1 19 -3 4 -6 -2 -5 -13z"/>
<path d="M2260 9528 c-2 -5 -3 -11 -4 -15 -1 -5 -5 -15 -10 -23 -7 -11 -4 -11
9 2 9 9 15 22 12 30 -3 7 -6 10 -7 6z"/>
<path d="M2295 9520 c3 -5 11 -10 16 -10 6 0 7 5 4 10 -3 6 -11 10 -16 10 -6
0 -7 -4 -4 -10z"/>
<path d="M2215 9500 c3 -5 8 -10 11 -10 2 0 4 5 4 10 0 6 -5 10 -11 10 -5 0
-7 -4 -4 -10z"/>
<path d="M2080 9480 c0 -5 5 -10 10 -10 6 0 10 5 10 10 0 6 -4 10 -10 10 -5 0
-10 -4 -10 -10z"/>
<path d="M2316 9464 c-4 -9 -4 -19 -1 -22 3 -3 5 0 5 7 0 6 10 10 23 8 12 -2
16 -2 10 0 -7 3 -13 9 -13 14 0 15 -17 10 -24 -7z"/>
<path d="M7550 9460 c0 -5 5 -10 11 -10 5 0 7 5 4 10 -3 6 -8 10 -11 10 -2 0
-4 -4 -4 -10z"/>
<path d="M1915 9449 c-4 -6 -5 -12 -2 -15 2 -3 7 2 10 11 7 17 1 20 -8 4z"/>
<path d="M2050 9449 c0 -5 5 -7 10 -4 6 3 10 8 10 11 0 2 -4 4 -10 4 -5 0 -10
-5 -10 -11z"/>
<path d="M2263 9445 c0 -11 4 -12 14 -4 7 6 13 13 13 15 0 2 -6 4 -13 4 -8 0
-14 -7 -14 -15z"/>
<path d="M7608 9438 c9 -9 15 -9 24 0 9 9 7 12 -12 12 -19 0 -21 -3 -12 -12z"/>
<path d="M2170 9430 c13 -8 12 -10 -4 -10 -11 0 -17 -3 -13 -6 3 -3 15 -3 28
1 17 6 19 9 8 16 -8 5 -18 9 -24 9 -5 0 -3 -5 5 -10z"/>
<path d="M7740 9415 c0 -3 9 -16 20 -28 12 -12 16 -23 10 -25 -5 -2 -10 -9
-10 -15 0 -6 7 -4 16 5 9 9 14 23 11 32 -6 15 -47 42 -47 31z"/>
<path d="M7696 9401 c-4 -7 -5 -15 -2 -18 9 -9 19 4 14 18 -4 11 -6 11 -12 0z"/>
<path d="M1880 9389 c0 -5 5 -7 10 -4 6 3 10 8 10 11 0 2 -4 4 -10 4 -5 0 -10
-5 -10 -11z"/>
<path d="M2000 9385 c0 -8 2 -15 4 -15 2 0 6 7 10 15 3 8 1 15 -4 15 -6 0 -10
-7 -10 -15z"/>
<path d="M1975 9370 c3 -5 8 -10 11 -10 2 0 4 5 4 10 0 6 -5 10 -11 10 -5 0
-7 -4 -4 -10z"/>
<path d="M7610 9370 c0 -5 5 -10 10 -10 6 0 10 5 10 10 0 6 -4 10 -10 10 -5 0
-10 -4 -10 -10z"/>
<path d="M7665 9370 c-3 -5 -1 -10 4 -10 6 0 11 5 11 10 0 6 -2 10 -4 10 -3 0
-8 -4 -11 -10z"/>
<path d="M7721 9362 c-13 -25 -14 -32 -2 -32 9 0 23 41 16 48 -2 2 -8 -5 -14
-16z"/>
<path d="M1832 9345 c-11 -12 -10 -15 3 -15 8 0 15 7 15 15 0 18 -2 18 -18 0z"/>
<path d="M7860 9350 c0 -5 4 -10 9 -10 6 0 13 5 16 10 3 6 -1 10 -9 10 -9 0
-16 -4 -16 -10z"/>
<path d="M7665 9330 c3 -5 8 -10 11 -10 2 0 4 5 4 10 0 6 -5 10 -11 10 -5 0
-7 -4 -4 -10z"/>
<path d="M7760 9304 c0 -11 -6 -15 -19 -11 -10 2 -25 1 -32 -4 -10 -6 -4 -9
19 -9 29 0 32 -3 32 -30 0 -17 -7 -33 -17 -39 -16 -10 -16 -10 2 -11 17 0 21
7 23 38 2 20 5 44 8 54 3 9 0 19 -6 23 -5 3 -10 -1 -10 -11z"/>
<path d="M7646 9281 c-4 -5 3 -7 14 -4 23 6 26 13 6 13 -8 0 -17 -4 -20 -9z"/>
<path d="M7700 9241 c0 -12 5 -21 10 -21 6 0 10 6 10 14 0 8 -4 18 -10 21 -5
3 -10 -3 -10 -14z"/>
<path d="M7660 9206 c0 -2 9 -6 20 -9 11 -3 18 -1 14 4 -5 9 -34 13 -34 5z"/>
<path d="M7740 9173 c0 -8 5 -13 12 -11 18 6 21 25 3 25 -8 0 -15 -7 -15 -14z"/>
<path d="M7620 9169 c0 -5 5 -7 10 -4 6 3 10 8 10 11 0 2 -4 4 -10 4 -5 0 -10
-5 -10 -11z"/>
<path d="M7673 9152 c-8 -5 -7 -11 2 -19 10 -10 14 -9 19 2 6 17 -5 26 -21 17z"/>
<path d="M1502 9118 c-40 -11 -71 -22 -69 -25 6 -6 140 28 152 38 13 12 1 11
-83 -13z"/>
<path d="M7667 9103 c-4 -3 -7 -11 -7 -17 0 -6 5 -5 12 2 6 6 9 14 7 17 -3 3
-9 2 -12 -2z"/>
<path d="M1388 9083 c7 -3 16 -2 19 1 4 3 -2 6 -13 5 -11 0 -14 -3 -6 -6z"/>
<path d="M1320 9070 c-11 -8 -7 -9 15 -4 37 8 45 14 19 14 -10 0 -26 -5 -34
-10z"/>
<path d="M1148 9023 c7 -3 16 -2 19 1 4 3 -2 6 -13 5 -11 0 -14 -3 -6 -6z"/>
<path d="M7648 9023 c7 -3 16 -2 19 1 4 3 -2 6 -13 5 -11 0 -14 -3 -6 -6z"/>
<path d="M7673 8993 c-10 -3 -10 -8 1 -19 19 -19 23 -18 29 6 5 20 -5 24 -30
13z"/>
<path d="M7660 8932 c0 -5 7 -13 16 -16 10 -4 14 -1 12 6 -5 15 -28 23 -28 10z"/>
<path d="M7522 8880 c0 -14 2 -19 5 -12 2 6 2 18 0 25 -3 6 -5 1 -5 -13z"/>
<path d="M7550 8870 c0 -5 5 -10 10 -10 6 0 10 5 10 10 0 6 -4 10 -10 10 -5 0
-10 -4 -10 -10z"/>
<path d="M7667 8864 c-4 -4 -4 -10 -1 -15 6 -10 34 0 34 12 0 10 -24 12 -33 3z"/>
<path d="M7541 8829 c-1 -19 26 -45 36 -35 3 3 1 6 -6 6 -6 0 -16 10 -21 23
-6 15 -9 17 -9 6z"/>
<path d="M7575 8830 c3 -5 8 -10 11 -10 2 0 4 5 4 10 0 6 -5 10 -11 10 -5 0
-7 -4 -4 -10z"/>
<path d="M7610 8825 c-17 -21 -5 -31 15 -12 8 9 15 18 15 21 0 11 -18 6 -30
-9z"/>
<path d="M7641 8801 c-8 -6 -9 -11 -3 -15 6 -3 14 -1 17 5 9 14 2 20 -14 10z"/>
<path d="M7521 8744 c0 -11 3 -14 6 -6 3 7 2 16 -1 19 -3 4 -6 -2 -5 -13z"/>
<path d="M7553 8713 c9 -9 20 -13 24 -9 4 4 1 11 -7 16 -25 16 -35 11 -17 -7z"/>
<path d="M7483 8713 c9 -2 23 -2 30 0 6 3 -1 5 -18 5 -16 0 -22 -2 -12 -5z"/>
<path d="M7600 8702 c0 -6 7 -13 16 -16 8 -3 12 -10 9 -16 -8 -13 5 -13 25 0
10 6 11 12 5 18 -16 15 -55 24 -55 14z"/>
<path d="M7520 8680 c0 -12 28 -25 36 -17 3 3 -4 10 -15 17 -15 7 -21 7 -21 0z"/>
<path d="M7690 8660 c0 -5 5 -10 10 -10 6 0 10 5 10 10 0 6 -4 10 -10 10 -5 0
-10 -4 -10 -10z"/>
<path d="M7730 8660 c0 -5 5 -10 10 -10 6 0 10 5 10 10 0 6 -4 10 -10 10 -5 0
-10 -4 -10 -10z"/>
<path d="M7586 8651 c-8 -13 46 -30 77 -24 43 8 21 22 -25 16 -29 -4 -39 -3
-34 5 4 7 3 12 -3 12 -5 0 -12 -4 -15 -9z"/>
<path d="M7725 8630 c4 -6 11 -8 16 -5 14 9 11 15 -7 15 -8 0 -12 -5 -9 -10z"/>
<path d="M7540 8620 c0 -5 5 -10 10 -10 6 0 10 5 10 10 0 6 -4 10 -10 10 -5 0
-10 -4 -10 -10z"/>
<path d="M7630 8600 c0 -5 5 -10 10 -10 6 0 10 5 10 10 0 6 -4 10 -10 10 -5 0
-10 -4 -10 -10z"/>
<path d="M7602 8580 c0 -14 2 -19 5 -12 2 6 2 18 0 25 -3 6 -5 1 -5 -13z"/>
<path d="M7450 8540 c-12 -8 -10 -10 8 -10 13 0 20 4 17 10 -7 12 -6 12 -25 0z"/>
<path d="M7516 8525 c4 -8 1 -22 -6 -30 -10 -12 -9 -15 4 -15 18 0 23 45 6 55
-6 3 -7 -1 -4 -10z"/>
<path d="M7584 8516 c-10 -8 -16 -18 -11 -22 4 -4 16 2 27 14 23 25 14 29 -16
8z"/>
<path d="M7654 8521 c4 -5 -6 -14 -21 -20 -25 -10 -24 -11 15 -6 42 5 42 5 36
-22 l-6 -28 16 22 c14 19 15 26 4 43 -7 11 -21 20 -31 20 -10 0 -16 -4 -13 -9z"/>
<path d="M7574 8462 c0 -11 9 -18 23 -18 l24 -2 -22 19 c-27 23 -25 23 -25 1z"/>
<path d="M7636 8466 c7 -19 38 -22 32 -3 -3 6 -12 13 -21 15 -12 2 -15 -1 -11
-12z"/>
<path d="M7481 8443 c-1 -6 -4 -20 -7 -30 -5 -17 -5 -17 6 0 6 10 9 23 6 30
-3 9 -5 9 -5 0z"/>
<path d="M7532 8434 c-14 -16 -5 -18 17 -5 7 5 9 11 5 14 -5 3 -15 -1 -22 -9z"/>
<path d="M7670 8439 c-24 -10 -24 -11 -6 -25 13 -9 23 -11 30 -4 14 14 43 12
49 -2 2 -8 8 -9 13 -4 5 5 4 11 -3 13 -7 3 -13 11 -13 19 0 16 -33 18 -70 3z"/>
<path d="M7570 8409 c-12 -8 -11 -10 5 -8 11 1 29 0 40 -1 15 -1 16 -3 5 -7
-23 -9 -43 -33 -35 -41 4 -4 10 -1 12 6 3 7 17 18 31 23 14 6 21 13 16 18 -16
15 -59 21 -74 10z"/>
<path d="M6964 8395 c-6 -15 14 -50 24 -40 3 2 -1 12 -8 21 -12 13 -11 17 1
25 10 6 11 9 1 9 -7 0 -15 -7 -18 -15z"/>
<path d="M7503 8403 c-16 -6 -17 -69 -2 -78 17 -11 23 3 12 27 -13 31 -6 47
17 41 11 -3 20 -3 20 0 0 7 -33 14 -47 10z"/>
<path d="M6920 8390 c0 -5 5 -10 10 -10 6 0 10 5 10 10 0 6 -4 10 -10 10 -5 0
-10 -4 -10 -10z"/>
<path d="M7010 8396 c0 -2 7 -6 15 -10 8 -3 15 -1 15 4 0 6 -7 10 -15 10 -8 0
-15 -2 -15 -4z"/>
<path d="M7445 8390 c3 -5 8 -10 11 -10 2 0 4 5 4 10 0 6 -5 10 -11 10 -5 0
-7 -4 -4 -10z"/>
<path d="M7540 8360 c0 -5 7 -10 16 -10 8 0 12 5 9 10 -3 6 -10 10 -16 10 -5
0 -9 -4 -9 -10z"/>
<path d="M7656 8361 c-3 -5 1 -11 9 -15 9 -3 15 0 15 9 0 16 -16 20 -24 6z"/>
<path d="M7013 8346 c-29 -13 -30 -26 -3 -26 11 0 23 7 27 15 7 21 2 23 -24
11z"/>
<path d="M7410 8350 c0 -5 7 -7 15 -4 8 4 15 8 15 10 0 2 -7 4 -15 4 -8 0 -15
-4 -15 -10z"/>
<path d="M7455 8340 c5 -14 2 -20 -9 -20 -9 0 -16 -4 -16 -8 0 -10 46 -10 56
1 4 4 2 7 -4 7 -7 0 -12 9 -12 20 0 11 -5 20 -11 20 -6 0 -8 -9 -4 -20z"/>
<path d="M7120 8328 c0 -25 12 -28 35 -11 19 15 19 15 1 9 -12 -4 -23 -1 -28
6 -6 10 -8 9 -8 -4z"/>
<path d="M7395 8310 c3 -5 8 -10 11 -10 2 0 4 5 4 10 0 6 -5 10 -11 10 -5 0
-7 -4 -4 -10z"/>
<path d="M7176 8302 c-3 -6 -1 -14 5 -17 15 -10 25 3 12 16 -7 7 -13 7 -17 1z"/>
<path d="M7460 8271 c0 -13 37 -24 51 -15 8 4 7 9 -2 15 -19 12 -49 11 -49 0z"/>
<path d="M7410 8256 c0 -8 5 -18 10 -21 6 -3 10 3 10 14 0 12 -4 21 -10 21 -5
0 -10 -6 -10 -14z"/>
<path d="M7300 8240 c0 -4 7 -10 15 -14 8 -3 15 -15 15 -28 0 -14 3 -19 10
-12 14 14 1 51 -21 57 -10 3 -19 2 -19 -3z"/>
<path d="M7357 8239 c7 -7 15 -10 18 -7 3 3 -2 9 -12 12 -14 6 -15 5 -6 -5z"/>
<path d="M7520 8229 c0 -6 -10 -9 -22 -6 -13 3 -32 1 -43 -4 -18 -8 -18 -8 5
-7 48 2 60 -2 60 -21 0 -11 -6 -22 -12 -24 -8 -3 -6 -6 5 -6 9 -1 17 -8 17
-16 0 -9 -6 -12 -15 -9 -8 4 -15 2 -15 -4 0 -10 23 -22 41 -22 5 0 8 10 6 21
-1 12 4 24 11 26 6 3 12 -2 12 -11 0 -9 7 -16 15 -16 23 0 18 16 -10 34 -14 9
-25 12 -25 6 0 -5 -4 -10 -8 -10 -7 0 -11 18 -13 63 0 18 -9 24 -9 6z"/>
<path d="M7592 8210 c-10 -16 -10 -24 0 -40 7 -11 19 -20 27 -20 11 0 9 5 -5
21 -14 16 -15 23 -6 26 13 5 17 33 4 33 -4 0 -13 -9 -20 -20z"/>
<path d="M7550 8210 c0 -5 5 -10 10 -10 6 0 10 5 10 10 0 6 -4 10 -10 10 -5 0
-10 -4 -10 -10z"/>
<path d="M7415 8200 c3 -5 8 -10 11 -10 2 0 4 5 4 10 0 6 -5 10 -11 10 -5 0
-7 -4 -4 -10z"/>
<path d="M7296 8175 c-3 -8 -1 -15 4 -15 6 0 10 7 10 15 0 8 -2 15 -4 15 -2 0
-6 -7 -10 -15z"/>
<path d="M7430 8155 c-8 -9 -8 -15 -2 -15 6 0 13 6 15 13 4 9 8 9 15 -2 6 -8
12 -9 16 -3 3 5 -1 13 -10 16 -21 8 -20 8 -34 -9z"/>
<path d="M7368 8153 c6 -2 18 -2 25 0 6 3 1 5 -13 5 -14 0 -19 -2 -12 -5z"/>
<path d="M7368 8113 c6 -2 18 -2 25 0 6 3 1 5 -13 5 -14 0 -19 -2 -12 -5z"/>
<path d="M7426 8111 c-3 -5 0 -11 8 -14 15 -6 26 1 26 15 0 11 -27 10 -34 -1z"/>
<path d="M7350 8095 c0 -2 14 -10 31 -19 19 -10 29 -11 27 -4 -4 10 -58 32
-58 23z"/>
<path d="M7297 8059 c-3 -12 -2 -31 2 -42 6 -17 8 -12 8 21 0 47 -2 52 -10 21z"/>
<path d="M7060 7989 c0 -5 5 -7 10 -4 6 3 10 8 10 11 0 2 -4 4 -10 4 -5 0 -10
-5 -10 -11z"/>
<path d="M7380 7990 c0 -5 5 -10 11 -10 5 0 7 5 4 10 -3 6 -8 10 -11 10 -2 0
-4 -4 -4 -10z"/>
<path d="M7330 7950 c-12 -8 -11 -10 8 -10 12 0 22 5 22 10 0 13 -11 13 -30 0z"/>
<path d="M7360 7810 c0 -5 5 -10 10 -10 6 0 10 5 10 10 0 6 -4 10 -10 10 -5 0
-10 -4 -10 -10z"/>
<path d="M4970 7750 c20 -13 33 -13 25 0 -3 6 -14 10 -23 10 -15 0 -15 -2 -2
-10z"/>
<path d="M6957 7141 c-4 -17 -3 -21 5 -13 5 5 8 16 6 23 -3 8 -7 3 -11 -10z"/>
<path d="M6905 7130 c3 -5 8 -10 11 -10 2 0 4 5 4 10 0 6 -5 10 -11 10 -5 0
-7 -4 -4 -10z"/>
<path d="M6990 7070 c0 -5 5 -10 10 -10 6 0 10 5 10 10 0 6 -4 10 -10 10 -5 0
-10 -4 -10 -10z"/>
<path d="M6975 7009 c-10 -15 3 -25 16 -12 7 7 7 13 1 17 -6 3 -14 1 -17 -5z"/>
<path d="M5300 6900 c0 -11 39 -20 45 -10 3 4 -6 10 -20 12 -14 3 -25 2 -25
-2z"/>
<path d="M6913 6895 c0 -8 4 -15 9 -15 4 0 8 7 8 15 0 8 -4 15 -8 15 -5 0 -9
-7 -9 -15z"/>
<path d="M6885 6730 c-21 -5 -24 -8 -10 -10 11 -1 32 -3 48 -5 29 -4 37 9 11
19 -9 3 -16 5 -17 5 -1 -1 -15 -5 -32 -9z"/>
<path d="M6865 6690 c3 -5 8 -10 11 -10 2 0 4 5 4 10 0 6 -5 10 -11 10 -5 0
-7 -4 -4 -10z"/>
<path d="M6890 6680 c0 -5 5 -10 10 -10 6 0 10 5 10 10 0 6 -4 10 -10 10 -5 0
-10 -4 -10 -10z"/>
<path d="M3772 6631 c6 -23 16 -41 24 -41 7 0 16 -5 20 -12 4 -7 3 -8 -4 -4
-7 4 -12 3 -12 -2 0 -9 69 -22 121 -22 21 0 29 -6 37 -27 8 -26 4 -33 -56 -88
-60 -56 -65 -63 -69 -112 -4 -40 -2 -56 11 -69 26 -25 14 -39 -37 -40 -37 -2
-47 2 -47 15 -1 14 -2 14 -8 1 -4 -8 -5 -193 -2 -410 l5 -394 23 -12 c12 -6
25 -13 28 -16 5 -5 -113 -128 -122 -128 -2 0 -27 20 -56 43 -91 74 -106 82
-132 68 -12 -7 -31 -11 -41 -9 -32 6 -27 -20 5 -27 23 -5 29 -11 25 -24 -3
-10 3 -20 14 -26 11 -6 35 -23 54 -38 19 -15 43 -29 53 -31 11 -2 24 -6 29 -8
6 -1 23 9 39 24 28 26 29 26 49 7 12 -10 25 -19 29 -19 5 0 26 -13 46 -30 50
-40 91 -47 128 -24 47 31 62 50 67 87 4 31 0 38 -43 75 -150 129 -150 360 -1
524 43 48 47 56 40 83 -5 17 -7 37 -4 45 2 8 6 33 9 55 3 22 9 55 15 73 5 17
7 32 4 32 -16 0 28 36 65 52 23 11 40 23 37 28 -3 5 2 10 11 12 20 4 44 76 44
131 0 23 4 36 10 32 6 -3 10 -1 10 4 0 6 -4 11 -10 11 -5 0 -10 9 -10 21 0 11
-4 17 -10 14 -5 -3 -10 0 -10 8 0 32 -92 93 -134 88 -11 -2 -16 2 -12 8 4 6 1
9 -7 6 -7 -3 -19 5 -27 20 -7 14 -20 25 -29 25 -14 0 -112 33 -163 54 -14 7
-15 3 -6 -33z"/>
<path d="M6800 6629 c0 -5 5 -7 10 -4 6 3 10 8 10 11 0 2 -4 4 -10 4 -5 0 -10
-5 -10 -11z"/>
<path d="M6860 6625 c0 -8 5 -15 10 -15 6 0 10 7 10 15 0 8 -4 15 -10 15 -5 0
-10 -7 -10 -15z"/>
<path d="M6836 6601 c-4 -5 -2 -12 3 -15 5 -4 12 -2 15 3 4 5 2 12 -3 15 -5 4
-12 2 -15 -3z"/>
<path d="M6860 6570 c0 -5 5 -10 10 -10 6 0 10 5 10 10 0 6 -4 10 -10 10 -5 0
-10 -4 -10 -10z"/>
<path d="M6810 6554 c0 -17 17 -36 24 -26 3 5 -1 15 -9 22 -8 7 -15 9 -15 4z"/>
<path d="M3914 6508 c-17 -20 -17 -21 -1 -8 16 12 20 12 28 -1 7 -11 9 -9 9 9
0 28 -12 28 -36 0z"/>
<path d="M6590 6504 c0 -8 5 -12 10 -9 6 3 10 10 10 16 0 5 -4 9 -10 9 -5 0
-10 -7 -10 -16z"/>
<path d="M6730 6500 c0 -5 5 -10 10 -10 6 0 10 5 10 10 0 6 -4 10 -10 10 -5 0
-10 -4 -10 -10z"/>
<path d="M6820 6489 c0 -5 9 -9 20 -9 11 0 20 2 20 4 0 2 -9 6 -20 9 -11 3
-20 1 -20 -4z"/>
<path d="M3781 6353 c0 -23 -4 -48 -7 -56 -4 -11 1 -13 18 -10 21 4 23 9 19
56 -2 37 -6 46 -11 32 l-7 -20 -5 20 c-3 11 -6 1 -7 -22z m16 -25 c-3 -8 -6
-5 -6 6 -1 11 2 17 5 13 3 -3 4 -12 1 -19z"/>
<path d="M3790 6271 c0 -5 -8 -12 -17 -15 -11 -3 -8 -4 6 -3 24 2 44 27 22 27
-6 0 -11 -4 -11 -9z"/>
<path d="M3520 6206 c0 -2 8 -10 18 -17 15 -13 16 -12 3 4 -13 16 -21 21 -21
13z"/>
<path d="M3448 6057 c6 -7 8 -18 4 -22 -4 -5 0 -6 9 -2 23 8 29 -64 29 -339
l0 -224 36 -15 c30 -12 41 -13 63 -2 l26 12 3 275 c1 151 0 281 -3 289 -4 11
-9 10 -26 -5 -19 -17 -22 -17 -86 15 -37 18 -62 26 -55 18z"/>
<path d="M4263 5553 c15 -2 39 -2 55 0 15 2 2 4 -28 4 -30 0 -43 -2 -27 -4z"/>
<path d="M5880 5141 c0 -5 9 -11 21 -14 16 -4 18 -3 8 9 -13 16 -29 19 -29 5z"/>
<path d="M6143 5116 c21 -16 22 -26 2 -26 -9 0 -15 -9 -15 -25 0 -14 5 -25 10
-25 6 0 10 5 10 11 0 6 6 9 14 6 10 -4 13 2 12 21 -1 30 -18 52 -38 52 -9 -1
-7 -5 5 -14z"/>
<path d="M5835 5030 c-3 -5 -1 -10 4 -10 6 0 11 5 11 10 0 6 -2 10 -4 10 -3 0
-8 -4 -11 -10z"/>
<path d="M5808 5003 c12 -2 30 -2 40 0 9 3 -1 5 -23 4 -22 0 -30 -2 -17 -4z"/>
<path d="M4214 4898 c8 -18 66 -148 130 -289 64 -141 116 -262 116 -270 0 -26
19 7 66 111 75 169 84 197 69 197 -8 0 -11 -7 -7 -15 3 -10 1 -13 -6 -8 -6 4
-14 23 -17 44 -3 20 -10 45 -16 54 -5 10 -9 24 -9 31 0 20 -80 89 -96 83 -7
-3 -16 3 -19 13 -7 22 -49 43 -70 35 -8 -4 -22 -1 -30 6 -8 7 -31 10 -51 8
-27 -3 -38 0 -45 14 -17 31 -29 19 -15 -14z m76 -12 c0 -2 -7 -7 -16 -10 -8
-3 -12 -2 -9 4 6 10 25 14 25 6z"/>
<path d="M2547 4800 c-7 -23 -34 -99 -57 -163 l-22 -58 -41 4 c-23 3 -76 19
-117 35 -86 35 -219 58 -273 48 -21 -4 -44 -17 -57 -33 -25 -32 -27 -89 -2
-97 41 -13 254 -47 260 -42 3 3 0 6 -6 6 -7 0 -12 12 -12 26 0 18 4 25 14 21
7 -3 18 -1 24 5 16 16 177 10 237 -9 11 -3 38 -17 59 -31 27 -17 57 -25 92
-27 63 -3 64 -2 64 137 0 99 -5 128 -22 128 -5 0 -16 6 -24 14 -7 8 -33 17
-56 21 -24 4 -46 12 -50 18 -5 8 -8 7 -11 -3z"/>
<path d="M3010 4653 l-35 -4 5 -317 5 -317 90 3 c50 1 107 5 128 8 l38 6 -7
86 c-10 142 -6 282 9 282 4 0 7 8 7 18 0 23 29 64 30 42 0 -9 3 -11 8 -5 11
15 49 35 67 35 38 0 22 62 -27 106 -48 44 -89 57 -188 60 -52 1 -111 0 -130
-3z"/>
<path d="M5732 4556 c-12 -32 -22 -66 -22 -76 0 -10 -4 -21 -10 -25 -5 -3 -6
-13 -3 -22 5 -12 3 -14 -6 -8 -10 6 -11 2 -6 -15 5 -15 3 -20 -3 -16 -13 8
-32 -76 -19 -85 5 -4 -1 -14 -14 -22 -12 -9 -20 -20 -16 -23 7 -7 247 -7 254
0 3 3 -79 225 -114 305 l-19 44 -22 -57z m-1 -177 c-5 -13 -10 -19 -10 -12 -1
15 10 45 15 40 3 -2 0 -15 -5 -28z m-11 -39 c0 -5 -4 -10 -10 -10 -5 0 -10 5
-10 10 0 6 5 10 10 10 6 0 10 -4 10 -10z m-10 -30 c0 -5 -8 -10 -17 -10 -15 0
-16 2 -3 10 19 12 20 12 20 0z m-10 -30 c0 -5 -7 -10 -16 -10 -8 0 -12 5 -9
10 3 6 10 10 16 10 5 0 9 -4 9 -10z"/>
<path d="M4773 4450 c-6 -17 -8 -28 -3 -25 5 3 11 -1 13 -7 3 -7 6 4 6 25 1
20 0 37 -2 37 -1 0 -8 -14 -14 -30z"/>
<path d="M4090 4421 c0 -6 4 -13 10 -16 6 -3 7 1 4 9 -7 18 -14 21 -14 7z"/>
<path d="M6195 4229 c-4 -6 -5 -12 -2 -15 2 -3 7 2 10 11 7 17 1 20 -8 4z"/>
<path d="M1951 4226 c8 -9 266 -106 280 -106 7 0 22 -8 33 -17 20 -18 20 -18
5 7 -9 14 -29 33 -46 42 -34 20 -287 89 -272 74z"/>
<path d="M1940 4016 c20 -8 56 -16 80 -20 43 -5 42 -5 -15 14 -67 22 -122 27
-65 6z"/>
<path d="M4016 3541 c-4 -5 -2 -12 3 -15 5 -4 12 -2 15 3 4 5 2 12 -3 15 -5 4
-12 2 -15 -3z"/>
<path d="M3991 3528 c-1 -10 -8 -18 -16 -18 -10 0 -15 -11 -15 -35 0 -19 4
-35 9 -35 5 0 8 11 6 25 -1 14 2 28 6 31 5 3 9 -4 9 -15 0 -21 17 -37 28 -26
3 3 0 10 -8 16 -13 8 -13 10 0 19 10 7 12 12 4 18 -6 4 -14 14 -17 22 -4 12
-6 11 -6 -2z"/>
<path d="M3925 3520 c3 -5 8 -10 11 -10 2 0 4 5 4 10 0 6 -5 10 -11 10 -5 0
-7 -4 -4 -10z"/>
<path d="M3520 3509 c0 -5 5 -7 10 -4 6 3 10 8 10 11 0 2 -4 4 -10 4 -5 0 -10
-5 -10 -11z"/>
<path d="M3858 3503 c7 -3 16 -2 19 1 4 3 -2 6 -13 5 -11 0 -14 -3 -6 -6z"/>
<path d="M4030 3500 c0 -5 7 -10 15 -10 8 0 15 5 15 10 0 6 -7 10 -15 10 -8 0
-15 -4 -15 -10z"/>
<path d="M3432 3470 c3 -16 1 -30 -4 -30 -5 0 -6 -5 -2 -11 9 -15 24 9 17 28
-3 7 0 13 6 13 17 0 13 17 -5 24 -13 5 -15 1 -12 -24z"/>
<path d="M3925 3490 c-3 -5 1 -10 10 -10 9 0 13 5 10 10 -3 6 -8 10 -10 10 -2
0 -7 -4 -10 -10z"/>
<path d="M3810 3469 c0 -5 5 -7 10 -4 6 3 10 8 10 11 0 2 -4 4 -10 4 -5 0 -10
-5 -10 -11z"/>
<path d="M4030 3460 c0 -5 7 -10 15 -10 8 0 15 5 15 10 0 6 -7 10 -15 10 -8 0
-15 -4 -15 -10z"/>
<path d="M3990 3440 c0 -27 15 -40 44 -39 29 0 30 1 8 10 -13 5 -21 13 -18 18
3 5 -3 11 -14 14 -11 3 -20 1 -20 -3z"/>
<path d="M4058 3433 c7 -3 16 -2 19 1 4 3 -2 6 -13 5 -11 0 -14 -3 -6 -6z"/>
<path d="M3950 3415 c0 -8 5 -15 10 -15 6 0 10 7 10 15 0 8 -4 15 -10 15 -5 0
-10 -7 -10 -15z"/>
<path d="M4130 3420 c0 -5 5 -10 11 -10 5 0 7 5 4 10 -3 6 -8 10 -11 10 -2 0
-4 -4 -4 -10z"/>
<path d="M3407 3413 c-14 -14 -6 -25 14 -20 18 5 20 2 16 -19 -3 -19 0 -24 17
-23 11 0 15 3 9 6 -7 2 -13 15 -13 28 0 12 -7 26 -16 29 -19 7 -19 7 -27 -1z"/>
<path d="M4365 3390 c-8 -13 14 -42 26 -34 5 3 9 14 9 25 0 20 -24 26 -35 9z"/>
<path d="M3970 3382 c0 -14 11 -21 26 -15 8 3 11 9 8 14 -7 11 -34 12 -34 1z"/>
<path d="M4050 3380 c0 -5 9 -10 21 -10 11 0 17 5 14 10 -3 6 -13 10 -21 10
-8 0 -14 -4 -14 -10z"/>
<path d="M4240 3380 c0 -5 5 -10 10 -10 6 0 10 5 10 10 0 6 -4 10 -10 10 -5 0
-10 -4 -10 -10z"/>
<path d="M4300 3381 c0 -5 7 -11 15 -15 9 -3 15 0 15 9 0 8 -7 15 -15 15 -8 0
-15 -4 -15 -9z"/>
<path d="M3960 3348 c0 -4 9 -8 20 -8 11 0 20 4 20 8 0 4 -9 8 -20 8 -11 0
-20 -4 -20 -8z"/>
<path d="M4010 3350 c0 -5 5 -10 10 -10 6 0 10 5 10 10 0 6 -4 10 -10 10 -5 0
-10 -4 -10 -10z"/>
<path d="M4120 3350 l-45 -7 42 -1 c23 -1 45 3 48 8 3 6 5 9 3 8 -2 0 -23 -4
-48 -8z"/>
<path d="M4205 3350 c-3 -5 1 -10 10 -10 9 0 13 5 10 10 -3 6 -8 10 -10 10 -2
0 -7 -4 -10 -10z"/>
<path d="M4245 3350 c-3 -5 -1 -10 4 -10 6 0 11 5 11 10 0 6 -2 10 -4 10 -3 0
-8 -4 -11 -10z"/>
<path d="M3470 3340 c-8 -5 -10 -10 -5 -10 6 0 17 5 25 10 8 5 11 10 5 10 -5
0 -17 -5 -25 -10z"/>
<path d="M3438 3318 c6 -6 18 -8 28 -6 14 3 12 5 -9 10 -19 3 -25 2 -19 -4z"/>
<path d="M3251 3294 c0 -11 3 -14 6 -6 3 7 2 16 -1 19 -3 4 -6 -2 -5 -13z"/>
<path d="M3590 3191 c0 -143 10 -181 50 -181 15 0 33 7 41 16 15 18 25 162 15
226 -6 43 -7 44 -40 40 -19 -2 -37 1 -40 7 -19 30 -26 1 -26 -108z"/>
<path d="M3011 3256 c11 -10 89 -15 89 -6 0 5 -21 10 -47 10 -25 0 -44 -2 -42
-4z"/>
<path d="M3543 3110 c0 -25 2 -35 4 -22 2 12 2 32 0 45 -2 12 -4 2 -4 -23z"/>
<path d="M3128 2723 c7 -3 16 -2 19 1 4 3 -2 6 -13 5 -11 0 -14 -3 -6 -6z"/>
<path d="M3090 2690 c0 -5 7 -10 15 -10 8 0 15 5 15 10 0 6 -7 10 -15 10 -8 0
-15 -4 -15 -10z"/>
<path d="M2880 2680 c0 -5 5 -10 10 -10 6 0 10 5 10 10 0 6 -4 10 -10 10 -5 0
-10 -4 -10 -10z"/>
<path d="M2970 2646 c0 -2 7 -7 16 -10 8 -3 12 -2 9 4 -6 10 -25 14 -25 6z"/>
<path d="M3025 2620 c-4 -6 -3 -16 3 -22 6 -6 12 -6 17 2 4 6 3 16 -3 22 -6 6
-12 6 -17 -2z"/>
<path d="M2892 2585 c4 -23 49 -28 56 -6 3 10 0 12 -13 7 -10 -3 -24 -1 -32 6
-13 10 -15 9 -11 -7z"/>
<path d="M2972 2575 c-7 -8 -9 -15 -4 -15 5 0 15 7 22 15 16 19 -1 19 -18 0z"/>
<path d="M2847 2550 c19 -22 29 -19 20 5 -4 8 -13 15 -22 15 -13 0 -12 -3 2
-20z"/>
<path d="M3036 2556 c3 -9 11 -16 16 -16 13 0 5 23 -10 28 -7 2 -10 -2 -6 -12z"/>
<path d="M2815 2530 c3 -5 8 -10 11 -10 2 0 4 5 4 10 0 6 -5 10 -11 10 -5 0
-7 -4 -4 -10z"/>
<path d="M2975 2530 c3 -5 8 -10 11 -10 2 0 4 5 4 10 0 6 -5 10 -11 10 -5 0
-7 -4 -4 -10z"/>
<path d="M3097 2486 c-6 -15 1 -26 15 -26 4 0 8 9 8 20 0 23 -15 27 -23 6z"/>
<path d="M2980 2480 c0 -6 7 -10 15 -10 8 0 15 2 15 4 0 2 -7 6 -15 10 -8 3
-15 1 -15 -4z"/>
<path d="M2712 2261 c-11 -7 -11 -9 2 -14 10 -4 16 -1 16 8 0 17 -1 17 -18 6z"/>
<path d="M2658 2253 c7 -3 16 -2 19 1 4 3 -2 6 -13 5 -11 0 -14 -3 -6 -6z"/>
<path d="M1740 2212 c-13 -14 -12 -15 2 -9 9 3 19 1 22 -6 2 -7 5 -5 5 5 1 24
-12 29 -29 10z"/>
<path d="M1804 2198 c3 -13 6 -26 6 -30 0 -5 7 -8 15 -8 14 0 14 3 0 30 -18
35 -30 39 -21 8z"/>
<path d="M742 1700 c0 -14 2 -19 5 -12 2 6 2 18 0 25 -3 6 -5 1 -5 -13z"/>
<path d="M1965 1350 c3 -5 8 -10 11 -10 2 0 4 5 4 10 0 6 -5 10 -11 10 -5 0
-7 -4 -4 -10z"/>
<path d="M2028 1353 c7 -3 16 -2 19 1 4 3 -2 6 -13 5 -11 0 -14 -3 -6 -6z"/>
<path d="M1910 1306 c0 -9 -4 -16 -10 -16 -5 0 -10 5 -10 10 0 6 -5 10 -10 10
-6 0 -10 -7 -8 -16 2 -12 -6 -17 -26 -20 -37 -4 -47 -14 -13 -14 14 0 27 -5
29 -10 2 -6 13 -2 25 10 12 11 27 20 33 20 13 0 13 27 0 35 -5 3 -10 -1 -10
-9z"/>
<path d="M1460 1296 c0 -8 -8 -16 -17 -19 -14 -3 -12 -6 10 -15 39 -16 67 -15
67 3 0 8 5 15 10 15 6 0 10 -9 10 -20 0 -29 17 -25 23 6 5 25 3 26 -35 21 -28
-4 -41 -1 -45 9 -7 18 -23 18 -23 0z"/>
<path d="M1830 1295 c-8 -9 -8 -15 -2 -15 12 0 26 19 19 26 -2 2 -10 -2 -17
-11z"/>
<path d="M1750 1290 c-12 -8 -10 -10 8 -10 13 0 20 4 17 10 -7 12 -6 12 -25 0z"/>
<path d="M1604 1275 c-3 -8 -4 -20 -1 -27 3 -7 6 -3 6 10 1 19 5 22 24 17 17
-5 19 -4 7 4 -21 15 -30 14 -36 -4z"/>
<path d="M1808 1233 c6 -2 18 -2 25 0 6 3 1 5 -13 5 -14 0 -19 -2 -12 -5z"/>
<path d="M180 1088 c-19 -5 -47 -10 -62 -9 -16 0 -28 -5 -28 -12 0 -9 -2 -9
-8 0 -5 8 -21 10 -45 6 l-37 -6 0 -423 c0 -394 3 -449 25 -414 5 8 11 7 20 0
15 -12 35 -6 35 11 0 5 -9 9 -20 9 -11 0 -20 5 -20 10 0 6 9 10 20 10 11 0 20
-4 20 -8 0 -7 134 -9 172 -3 3 1 16 20 27 44 19 39 21 61 21 240 0 142 -4 214
-16 263 -9 42 -14 95 -11 139 5 82 -6 131 -33 145 -10 5 -20 10 -22 9 -2 -1
-19 -6 -38 -11z"/>
<path d="M2444 1076 c-7 -18 -34 -22 -34 -5 0 5 -4 8 -8 5 -4 -2 -53 -6 -107
-7 -55 -1 -105 -6 -112 -11 -7 -6 -15 -3 -22 9 -13 23 -14 8 -1 -18 10 -17 8
-18 -15 -9 -34 13 -41 13 -57 -3 -7 -7 -25 -18 -40 -24 -16 -7 -28 -17 -28
-23 0 -16 30 -12 36 5 4 8 10 15 15 15 14 0 11 -38 -3 -43 -7 -2 1 -4 17 -5
17 -1 57 -2 90 -3 33 -1 63 -7 67 -13 5 -8 14 -7 28 2 17 10 25 10 36 1 8 -6
14 -8 14 -3 0 5 36 10 80 10 45 1 84 5 88 9 4 4 3 6 -3 5 -28 -6 -54 2 -58 18
-3 14 -6 13 -14 -8 l-10 -25 -7 23 c-9 27 -26 29 -26 2 0 -11 -5 -20 -11 -20
-7 0 -8 7 -4 18 15 34 17 62 6 62 -6 0 -11 -8 -11 -17 -1 -17 -2 -17 -15 0 -8
12 -21 17 -32 13 -10 -3 -25 -1 -33 4 -12 7 -8 10 15 10 17 1 52 2 78 3 27 2
51 -1 54 -6 2 -4 10 -4 16 1 7 6 21 11 31 13 18 4 18 5 3 18 -14 11 -18 11
-23 -3z m-319 -45 c3 -5 1 -12 -5 -16 -5 -3 -10 1 -10 9 0 18 6 21 15 7z"/>
<path d="M2491 1074 c0 -11 3 -14 6 -6 3 7 2 16 -1 19 -3 4 -6 -2 -5 -13z"/>
<path d="M2520 1080 c0 -5 5 -10 11 -10 5 0 7 5 4 10 -3 6 -8 10 -11 10 -2 0
-4 -4 -4 -10z"/>
<path d="M2546 1068 c-3 -13 0 -27 6 -33 8 -7 9 -6 4 3 -4 7 -3 19 4 27 6 8 7
16 2 19 -6 3 -12 -4 -16 -16z"/>
<path d="M2000 1030 c0 -5 11 -10 25 -10 14 0 25 5 25 10 0 6 -11 10 -25 10
-14 0 -25 -4 -25 -10z"/>
<path d="M2390 1024 c0 -8 9 -14 20 -14 11 0 20 4 20 9 0 5 -9 11 -20 14 -13
3 -20 0 -20 -9z"/>
<path d="M1235 1022 c-38 -2 -75 -8 -81 -13 -8 -6 -14 -6 -18 0 -4 6 -17 5
-36 -2 -21 -8 -26 -14 -19 -23 6 -7 17 -10 24 -8 8 3 20 2 27 -2 14 -9 25 -10
106 -15 28 -2 52 -7 52 -10 0 -24 113 -11 132 15 10 15 302 7 326 -8 8 -5 18
-4 25 3 6 6 20 11 31 10 21 0 21 0 1 -8 -14 -6 -7 -8 25 -8 32 0 39 2 25 8
-19 7 -18 8 3 8 13 1 33 6 44 12 19 10 20 9 15 -11 -4 -16 -3 -20 5 -12 18 18
1 62 -25 61 -12 0 -61 1 -109 1 -47 1 -91 0 -96 -4 -5 -3 -12 -3 -16 1 -6 7
-318 10 -441 5z"/>
<path d="M1960 1016 c0 -8 5 -18 10 -21 6 -3 10 3 10 14 0 12 -4 21 -10 21 -5
0 -10 -6 -10 -14z"/>
<path d="M3338 273 c7 -3 16 -2 19 1 4 3 -2 6 -13 5 -11 0 -14 -3 -6 -6z"/>
<path d="M3450 250 c0 -5 5 -10 10 -10 6 0 10 5 10 10 0 6 -4 10 -10 10 -5 0
-10 -4 -10 -10z"/>
<path d="M240 230 c0 -5 5 -10 10 -10 6 0 10 5 10 10 0 6 -4 10 -10 10 -5 0
-10 -4 -10 -10z"/>
<path d="M3338 233 c7 -3 16 -2 19 1 4 3 -2 6 -13 5 -11 0 -14 -3 -6 -6z"/>
<path d="M178 223 c12 -2 30 -2 40 0 9 3 -1 5 -23 4 -22 0 -30 -2 -17 -4z"/>
<path d="M0 60 l0 -60 453 1 c248 1 439 4 422 6 -16 2 -139 17 -273 34 -133
16 -266 34 -295 39 -56 10 -274 40 -294 40 -9 0 -13 -19 -13 -60z"/>
</g>
</svg>
